<?xml version="1.0" encoding="UTF-8" standalone="no"?>
<svg xmlns="http://www.w3.org/2000/svg" width="150" height="150">
  <path fill="#fff" d="m73.6 7.2.5.5c.1.2.3.5.3.8l-.7-.4c-.3-.1-.4-.3-.6-.5v2.6l.6-.5.7-.4c0 .3-.2.6-.3.8l-.5.6h1-.1c-.5.2-.9.6-1 1v.2h-.2v.7h.1c.1.4.4.8.7 1H74l-.5.1-.1-.2v-.2a.6.6 0 0 0-.7-.4l-.3.1-.1.2v.6h-.4a.6.6 0 0 0 0-.3.6.6 0 0 0-.6-.4l-.3.1c-.1 0-.2 0-.2.2a.6.6 0 0 0 .1.7h-.4a.6.6 0 0 0 0-.3.6.6 0 0 0-.7-.4h-.2v.1s-.2 0-.2.2a.6.6 0 0 0 .2.7l-.2.1h-.2v-.2a.6.6 0 0 0-.7-.4l-.2.1-.2.2v.6l.1.1h.2l-.4.3V15h-.1a.6.6 0 0 0-.7-.3l-.3.1-.1.2v.2l.1.5h.2l-.4.4V16a.6.6 0 0 0-.7-.4l-.2.1-.2.2a.6.6 0 0 0 .2.7l.2.2-.2.2a.6.6 0 0 0-.7-.4c-.2 0-.3.1-.3.2l-.2.1v.3c0 .2 0 .3.2.4l.2.2h.1l-.2.3v.1a.6.6 0 0 0-.7-.3l-.3.2v.1l-.1.3.1.4h.1l.2.1h.1V19.4a7.7 7.7 0 0 0-1 .3v.3h.1c.4.7.8 1.4 1 2.1v.2a.7.7 0 0 0 0 .8h.1l.2.1a.6.6 0 0 0 .3 0v.2l.1.3.6 1.5h-.4c0 .1-.1.2 0 .2-.1.2 0 .3.1.4h.2V26.2l-.2.5.4.5.1.4h.2V28l-.2.2c0 .1 0 .3.2.3H66.6l-.7.1a1 1 0 0 0-.4.4.8.8 0 0 0-.2.5c0 .2 0 .4.3.5l.5.2h.5l-.8.6a11.2 11.2 0 0 1-4.6 2.5c-1.3.2-2.7.3-3.6-.6-.7-.8-1.1-1.7-.7-3.2l.4-.5.3-.2a5.1 5.1 0 0 0 2.7-2c.5-.8.6-2 .4-3.3a2.7 2.7 0 0 0-2.5.6l-.2.1a10.2 10.2 0 0 0 1-3V20a4.9 4.9 0 0 0-.1-.4v-.2l-.2-.3v-.4h-.1v-.1l-.1-.2-.1-.1v-.1l-.1-.1V18h-.1l-.1-.2-.1-.1-.4-.6-.2-.3-.3-.3-.2-.2-.3-.3v-.4c-.3-1.8-1-3-2.1-3.8a7 7 0 0 0-3.7-.8c0 .6-.1 1.1.4 1.8a5 5 0 0 0-2-.6c-.7 0-1.2.2-1.8.3a4.3 4.3 0 0 1-.7 0c-.4 0-.9 0-1.4-.3-.1 1.6.5 2.9 1.6 3.6a4 4 0 0 0 1.9.7h.7a12 12 0 0 0-1.2 1.2l-.4.5v.2a1.8 1.8 0 0 0-.2.5 6.7 6.7 0 0 0 1.2.5h.2c1 .3 1.9.2 2.7 0 .9-.3 1.7-.8 2.5-1.3l.2.8a2 2 0 0 1-.3 1.4 4.1 4.1 0 0 1-.2.3l-.2.2-.3.4c-.5.5-.6 1.1-.6 1.7-.2-.5-.5-1.1-1.1-1.2 0 0-1.2 1-1.5 2a7.4 7.4 0 0 0-.3 3.6c.2 1.2.8 2.8 1.5 3.7l1.5 2c.2.5.1.8-.6.6a4.7 4.7 0 0 1-3-3.1c-.5-1.3-.3-2.5-.5-3.7a4 4 0 0 0-.8-1.7c-.3-.4-.7-.5-.7-.5-.6.2-1 .6-1.3 1a6 6 0 0 0-.5 1.8c-.2-.5-.3-1.2-.2-1.9l.2-1 .2-.7v-.5l.1-.1V21.7a6 6 0 0 0 0-.3V21l-.1-.2v-.2h-.1V20.3h-.1v-.1l-.2-.4v-.1l-.2-.3v-.1l-.1-.2-.1-.1-.1-.1-.1-.2h-.1v-.1l-.2-.2h-.1v-.2h-.1l-.1-.1-.4-.4a15.4 15.4 0 0 1-.4-.2l-.2-.1-.1-.1H43l-.1-.1h-.1l-.2-.2h-.2l-.2-.1H42l-.2-.1h-.1l-.3-.2-.6-.1h-.6l-.1-.1h-.4a6.5 6.5 0 0 0-.6 0H39c-2.5.3-5 2-5.4 5.5.6 0 1.1.1 1.8-.4 0 0-.7 1-.9 1.6-.1.5 0 1.1-.2 1.6-.1.5-.6 1.2-.6 1.2s2.2.2 3-.2c.8-.4 1.7-1.7 1.7-1.7.4.4.2.6 1.3 1.3l.4-.2V26.1l-.3-.4c0 .9 0 1.6-.3 2H38a4 4 0 0 0-.1 1.9l-1.3.8c-1-.3-1.6-.2-2.2.5-1.2-.3-1.9.2-2.2.8-.6-.2-1-.2-1.3 0h-.1l-.4.3c-.5-.4-.4-1-.3-1.6a6.9 6.9 0 0 1-2.6 1.2c-1 .3-2 .4-2.8 1a5.5 5.5 0 0 0-1.4-2.6 6 6 0 0 0-1.2-1H22l-4.1-2.2c-.8-.5-1.4-1-2-1.8l.2.8c.3 1 1 2.1 1.4 3l.1.3-.6-.2a17.9 17.9 0 0 1-2-.7l-.5-.3-1.1-1c0 .3 0 .6.3.9.4.9 1.4 1.9 1.9 2.7.2.4.2 1 .2 1.4.7.3 1.2.7 1.6 1.1.3.5.6 1.2.5 2 1 .3 1.9.8 2.3 2.2.5-.4.9-1 2-.4l-.2 1.4a4.3 4.3 0 0 0-2.5 2.6h.1c.8-.2 1.3-.1 2.5.3a7.6 7.6 0 0 0 .3 1.6l-1 1h-.2A51.1 51.1 0 0 0 9.8 33.4l-4.2-2.3a58 58 0 0 0-1.1-.6l-.2-.1h-.1c3.5 3.5 6 7 4 10.4l-.1.1a56.7 56.7 0 0 0-2.2-1c-1.4-.8-3-1.3-4.4-1.9a58 58 0 0 0-1.2-.4l-.2-.2H0c4.6 3.7 8 7.5 3.9 12h.3c2.6.4 7.4 4.3 2.4 8.5 3.5 0 6.9 3.4 3.7 7.6 3.4-.2 7 2 5.5 6.7a6.9 6.9 0 0 1 8.3 2.3c-1.4-.1-2.6.5-3.3 1 .8.3 1.3.5 2 1.4l-.2.4c-1.1 0-2.2.5-2.7 1 .6.2 1 .4 1.7 1l-.3.6a4 4 0 0 0-1.9 1.2c.4 0 .7.2 1.1.3-.7 1.5-1.6 3.3-2.5 4.4-1 1-2 1.6-3.1 1.8h-.2a4 4 0 0 1-.4 0h-.9c-2-.4-3.9-2.2-4.3-4.8.7.8 1.6 1.4 2.5 1.8h.3v.1H12.3v.1a6 6 0 0 0 4-.2h.1a5 5 0 0 0 1.8-1.3c.5-.6.8-1.2 1-1.9v-.1c.3-1 .3-1.9 0-2.9a5.4 5.4 0 0 0-2.5-3.2 6 6 0 0 0-4-.7A6.7 6.7 0 0 0 8.4 77c-.7-1.9-.5-3.5-1.5-6.3 1.4 1.4 2.7 2.4 4.1 3v-.1A138.2 138.2 0 0 1 7.6 69l-.4-.6-.3-.5v-.1l-.3-.3-.1-.2-.4-.5v-.2H6l-.2-.3-.2-.3-.2-.2-.4-.4a29 29 0 0 0-5-4.6v-.2H0c1.3 2.7 4 6.7 2.3 14.1A8.7 8.7 0 0 0 5 70.5c1.3 3.3.6 6.4 1.9 9l-.4 1.8V82.5c.1 5.1 3.4 7.8 7 8.2 2.9.3 6.1-1.1 8.3-4.5l-.2 2.3v2c-.2.4-.3 1-.7 1.3-.3.3-.7.6-1.1.7h-.2a2 2 0 0 1-1.2-.3l-.9-.8c0 .3-.3 1.4 1.4 2.4h.2c-.4.3-.5.6-.1.8-.1.2-.3.4-.2.6 1.7 7.4.5 7.8.9 8.8.1.5 1.2 1.2 1.2 1.2v.7l-.4.4v.1l-.6.3h-1l-.4-.2c-.5-.2-1-.6-1.5-.5h-.2l-.3.3-.1.2-.2.1c-1 1-1.5 2.2-1.1 3.3.3-.5.7-1 1.3-1.5v.5l.2.2.1.2.1.2.2.2h.1l.4.3h.7a1.7 1.7 0 0 0 .9-1 3.1 3.1 0 0 0 .2-.5h1.2v.1l.2.1a1.1 1.1 0 0 1 .3.4v.1l.2.2.2 1.4c-1.7.4-2.8 1-2.8 1.6v5.6c-2.6-.4-5.8-1-8.3-1 3.9 2 7 3.2 6.8 5.4v.3c-.4-.1-.6-.5-.8-1 0 .4-.3 1-.7 1.1 0 .4.2 1.3-.1 1.7-.2 0-.6-.7-.6-1-.3 0-.5-.3-.7-.6 0 .5-.9.7-1.6.3.5.7.2 1.5-.3 1.5.3.2.6.5.6.7l.2.1-2.8 1.1h1.3c-.2.2-.4.2-.5.2.7.3 1.4.9.8 1.5.6-.2 1.4-.4 1.7 0 .3.3 0 .7-.1 1 0 0 .8-.6 1-.3.2-.3.6-.5.9-.7.2 0 .3.3.3.4a8.7 8.7 0 0 0-2.3 1.3l-.1-.2c-.5.3-1 .4-1.6.5.3-.3.4-1 .3-1.6.1-.3-.2.3-.5.1l-.3-1c-.4.1-.7-.8-.8-.9 0 .3 0 1-.3 1-.5.1-1.2-.5-1.5-1 .1.9-.7 1-1.5.9.2.2.7.7.5 1.1.4.3 1.2.5 1.4 1H8c0 .2-.5.3-.8.3.5.3.2 1.1-.5 1.5.8 0 1.4.6 1.1 1 .3-.1.7-.2.9 0 .1-.3.9-.7 1-.6 0 .5-.6 1-.7 1.4.3.3.1 1 0 1.4.6-.5 1.5-.8 1.7 0 0-.6.4-1.4.9-1.5l.3.1.3 1.2-.5.5c.8-.3 1 .6.9 1.4l.5-.5c.8.9 1.9 1.3 2.8.8-.8-.2-1.5-.5-2-1 .1-.4.3-1.1.7-1.4.2.2.2 1 0 1.2.3.1.4.5.4.8.3-.4 1.1-.2 1.5.5 0-.8.6-1.4 1-1.2-.1-.3-.3-.6-.1-.9-.3-.1-.7-.8-.6-1 .5 0 1.1.6 1.5.7.3-.3 1-.2 1.3 0-.3-.4-.5-.8-.5-1.1h.3c0-.4.5-1 .6-1 .3.4 0 1.2 0 1.6.5 0 .7.8.7 1.1.4-.7 1-1.3 1.5-.7-.2-.6-.3-1.5.1-1.8.2-.2.7.2 1 .3 0-.1-.6-.9-.3-1.1l-.6-1c0-.3.6-.2.3-.3-.5-.4-1-.7-1.4-.6.3-.4.8-.8 1.2-1v-.2l1.2.3-.5.6c.1 0 1-.4 1.2 0l.4-.2 2.2 1c0 .3 0 .5-.2.6-.5.2-1.2-.3-1.7-.6.3.7-.5 1-1.3 1 .3.2.9.6.8 1 .3.2 1.2.3 1.5.8-.1.1-1 .3-1.2.2 0 .2-.4.3-.7.4.5.2.3 1-.3 1.5.8-.1 1.5.4 1.3 1 .3-.3.6-.5.8-.4.2-.2.8-.7 1-.7.1.5-.4 1.2-.5 1.6.4.2.3 1 .2 1.3.6-.6 1.3-1 1.7-.3 0-.5.1-1.4.7-1.6.2-.1.6.4.8.5 0 0-.2-.7 0-1l.4.3.1.1-.1.5c-.3 1-.5 1.7 0 2.2.1.2.5 0 .5-.3 0 .2.2.3.4.4.2.2.5 0 .4-.3v-.7c0 .3.1.5.3.6.2.2.5 0 .5-.3v-.2l.2.2c.2.2.5 0 .5-.3v-2.5H33.3v-.1l.5-.1.4.1-.3.3h.5l.6.3c-.2.3-.7.4-1.2.5.3.2 1 .5.9 1 .3 0 1.2 0 1.6.5-.1.1-.9.4-1.2.3 0 .3-.4.4-.7.5.5.2.5 1 0 1.6.7-.2 1.5.2 1.4.7.2-.2.5-.5.8-.4 0-.3.6-.8.8-.8.2.5-.2 1.2-.3 1.6.4.2.4 1 .4 1.3.5-.7 1.2-1.2 1.6-.5 0-.6 0-1.4.5-1.7.2-.2.6.3.9.4 0 0-.5-1 0-1-.3-.3-.4-.8-.5-1 0-.4.7-.2.4-.4-.4-.4-1-.9-1.3-.9.4-.2.9-.6 1.4-.7v-.3l1-.3c.2 0 .2.2.2.4l.4-.6c.3-.1.8-.4 1.2-.4l.1.3a2 2 0 0 1-.6.6c0 .3-.1.6-.4.8.5-.1 1 .7.8 1.4.5-.6 1.4-.6 1.6-.1 0-.4.2-.7.4-.8l.3-1.1c.5.3.5 1.2.6 1.5.5 0 .9.6 1 .9.1-.8.4-1.6 1.2-1.2-.4-.5-.8-1.3-.5-1.7 0-.3.7-.1 1-.1-.1-.1-1-.6-.7-1-.3 0-.7-.4-.9-.6-.1-.3.5-.5.2-.4-.6-.2-1.2-.3-1.6-.1.3-.5.5-1 .9-1.4l-.2-.2.4-.5.4.1c.4-.2 1-.8 1.5-.8 0 .2-.3 1-.5 1 .1.3 0 .6-.1 1 .4-.3 1 .3 1 1.1.4-.7 1.2-1 1.5-.6 0-.3 0-.7.3-.8-.1-.2-.2-1 0-1.2.5.2.7 1 1 1.4.4-.2.9.3 1.1.5 0-.7 0-1.6.8-1.4-.4-.4-1-1-.9-1.5 0-.3.5-.3.8-.4v.1h.1v-.1c.3-.2.5-.3.7-.2.1-.2.8-.8 1-.7 0 .5-.4 1.2-.5 1.6.4.2.3 1 .2 1.3.5-.5 1.1-1 1.5-.6a6.4 6.4 0 0 0 .4 1.7l-.4.4c.3.3-.3 1-.4 1 .3 0 .8-.3 1 0 .4.3.2 1.1 0 1.7.6-.6 1 .1 1.4.9 0-.4.3-1 .7-1.1 0-.5-.1-1.3.2-1.7.2 0 .6.8.6 1 .2 0 .5.4.6.7 0-.6 1-.8 1.6-.3-.4-.7-.2-1.6.3-1.6-.2-.1-.5-.4-.5-.6-.3 0-1-.5-1-.7.5-.3 1.3 0 1.7 0 0-.5.8-.6 1.1-.7-.6-.3-1.2-.7-1-1.2l.2.5c.2-.8 1-1.2 1.4-.8l.1-.9c-.1-.2-.3-1-.2-1.1.5.1 1 .9 1.2 1.2.4-.3 1 .1 1.3.3-.3-.7-.4-1.6.5-1.6-.5-.3-1.2-.8-1.1-1.3 0-.3.6-.4.8-.5 0 0-1-.2-1-.6l-1-.2c-.3-.3.2-.6 0-.5-.7 0-1.3.3-1.5.6 0-.5 0-1.1.2-1.6-.2-.2-.2-.2-.5 0 .2.4 0 1 0 1.6-.2-.4-.7-.6-1.4-.8-.2-.2.3.3 0 .5H61c0 .4-.5.5-.8.5 1.2-1 2.6-1.8 4.3-2.3v.8c.1.5 1 1 3.6 1.2l-.6.3c.6 0 .5 1 0 1.5.7-.2 1.5.2 1.4.7.2-.2.5-.4.8-.3 0-.3.6-.9.8-.9.2.5-.2 1.3-.3 1.7.4.1.5.9.4 1.2l.4-.4v.8c0 .2-.1.3-.3.3-.5 0-1-.8-1.1-1.4-.1.9-1 .7-1.7.3.2.3.5 1 .2 1.3.2.3.9.8 1 1.4-.2 0-1-.2-1.2-.5-.2.2-.5.1-.8 0 .3.4-.3 1.2-1 1.2.7.3 1 1.1.7 1.5.3-.1.7 0 .8.1.3-.1 1-.3 1.2-.1-.1.5-1 .8-1.2 1 .2.5-.2 1-.4 1.3.7-.2 1.6-.2 1.5.6.3-.5.9-1.2 1.4-1 .3 0 .4.6.5.8 0 0 .2-1 .6-.9l.1-.6c1.4 0 2.6-.3 3.7-.8 1.2.6 2.7.8 4.4.7.4 0 .7.7.8.8 0-.3 0-.9.2-1 .5-.2 1.2.4 1.6.8-.2-.8.6-1 1.4-1-.3-.2-.8-.6-.7-1-.3-.3-1.2-.4-1.5-.9.2-.1 1-.2 1.2-.1.1-.2.5-.3.8-.4-.4-.2-.2-1 .4-1.5-.8.1-1.5-.5-1.2-1-.3.2-.7.4-.9.3-.1.2-.8.7-1 .6 0-.5.5-1.2.7-1.5-.4-.3-.3-1-.2-1.3-.6.5-1.4.9-1.7 0 0 .5-.1 1-.3 1.2 0-.4 0-1-.2-1.4 0-.4-.2-.8-.4-1.1l.6-.6c-.2-.1-.1-.3 0-.5l2.4-.2-.3.3c.3.3-.4.9-.4 1 .2 0 .8-.4 1 0 .3.3 0 1.1-.2 1.7.6-.5 1 .2 1.3 1 0-.4.4-1 .8-1 .1-.4 0-1.3.3-1.7.2 0 .5.8.5 1.1.3 0 .5.3.6.7 0-.6 1-.7 1.6-.1-.3-.8 0-1.6.5-1.6-.3-.2-.5-.4-.5-.7-.2 0-.9-.5-1-.7.6-.3 1.4 0 1.8 0 0-.4.8-.5 1.1-.5a3 3 0 0 1-.6-.5l1.2.8-.4.5c-.3.2.3-.1.4.2 0 .3-.1.8-.3 1 .4.2 0 1.1 0 1.2.3-.2.6-.7 1-.5l.3.4-1.6.2c-.2 0-.4.2-.4.3-.2 0-.3.3-.2.4.2.2.3.3.5.3h-.2l-.3.2c-.2 0-.3.3-.2.5l.2.1c-.3 0-.5.3-.4.5l.3.2v.2c.6.5 1.4.2 2.2-.2h.2l.4.3s0 .4-.2.4c-.3 0-.8-.1-1-.3-.2.4-1.1.1-1.2.1.2.2.7.6.5.9-.1.5-1 .6-1.6.6.8.4.3 1.1-.2 1.7.3 0 1-.2 1.3.2.3 0 1-.6 1.6-.5 0 .2-.5.9-.8 1 .1.2 0 .5-.3.8.5-.2 1 .5.9 1.3.5-.6 1.4-.7 1.6-.3 0-.3.1-.6.4-.7-.1-.3 0-1 .2-1.2.4.3.5 1.2.7 1.5.4 0 .9.5 1 .8 0-.8.3-1.6 1-1.3-.3-.5-.8-1.2-.5-1.7l.1-.1h.8l-.3-.3c.4 0 .8.4 1.1.8 0-.3 0-1 .5-1.2-.1-.4-.5-1.1-.3-1.7.2 0 .7.6.8 1 .2-.2.5 0 .8.3-.1-.5.7-1 1.4-.7-.5-.5-.6-1.4 0-1.6-.3 0-.6-.2-.7-.4v-.9h.4v-.2c.2.2.4.7.3 1 .3 0 .5.3.6.6.1-.6 1-.6 1.6 0-.3-.8 0-1.6.5-1.6l1 1.1-.2.2c.3.4.4 1 .6 1.5-.4-.3-1-.3-1.6-.2-.3 0 .3.2.1.5l-1 .5c.2.4-.7.7-.7.8.2 0 .8 0 .9.3.2.4-.3 1.1-.8 1.5.8-.2 1 .6 1 1.4.2-.2.7-.8 1.1-.6.2-.4.4-1.2.8-1.5.2.1.2 1 .1 1.2.3.1.4.5.4.8.2-.5 1.1-.3 1.5.4 0-.8.5-1.5 1-1.2-.2-.3-.4-.7-.2-.9-.3-.1-.7-.8-.7-1 .6 0 1.2.5 1.6.7l.3-.2.4.2h.1v.2l.3.3v.1s0 .2.2.3c-.2 0-.3.2-.4.3-.2.7-.7 1.2-1 1.7-.2.2-.1.4 0 .5-.1.2 0 .4.2.4s.3 0 .5-.2v.2c-.2 0-.2.2-.1.3-.1.2 0 .5.2.4h.2c-.2.3-.1.6.1.6h.6c.7-.1 1-.9 1.2-1.8v-.2H111.1c-.3.1.3-.1.4.2 0 .3-.2.8-.4 1 .4.2 0 1 0 1.2.3-.2.6-.7 1-.5.4.2.5 1 .5 1.7.4-.8 1-.3 1.6.3 0-.3 0-1 .3-1.2 0-.4-.5-1.1-.4-1.7.2 0 .8.6 1 .8.2 0 .5.1.7.4-.1-.5.7-1 1.4-.8-.6-.5-.6-1.4-.1-1.6-.4 0-.7-.2-.8-.4l-1.1-.3c.3-.4 1.2-.5 1.5-.6 0-.5.6-.9.9-1-.8-.1-1.6-.4-1.3-1.2l-.3.3v-.2l.3-.2 1 .4c.1-.3 1 0 1 0 0-.1-.6-.5-.4-.8.3-.5 1.2-.5 1.7-.4-.4-.3-.4-.6-.1-1h1.4c-.4.2-.6.8-.8 1.4-.1.3.3-.2.5.1 0 .3.2.8.1 1.1.4 0 .5 1 .5 1 .2-.2.3-.8.6-.8.5 0 1 .8 1.2 1.3 0-.8 1-.7 1.6-.4-.2-.3-.5-1-.2-1.3-.2-.3-1-.7-1-1.3.1 0 .9.2 1.1.4.2-.2.5-.2.9 0-.4-.5.1-1.2 1-1.3-.9-.2-1.3-1-1-1.4l-.8-.1c-.2.2-1 .3-1.2.2.2-.5 1-.9 1.2-1.2-.2-.4.1-1 .3-1.3l-.5.2.7-.3h.2v.2c.5 0 1.1.2 1.6.4-.4.1-.8.6-1 1.2-.3.2.2-.1.4.2 0 .3 0 .8-.2 1 .4.1.2 1 .2 1.2.2-.2.5-.8.8-.7.5.2.7 1 .8 1.6.3-.8 1-.4 1.7 0-.1-.3-.3-1 .1-1.3-.2-.3-.8-1-.7-1.5.2 0 .9.4 1 .6.2-.1.6 0 .9.2-.3-.4.4-1 1.2-1-.7-.4-.9-1.2-.4-1.5-.4 0-.7 0-.8-.3l-1.2-.1c.2-.3.6-.5 1-.7l.5.4-.2-.5h.1v-.3c1 .1 2 .4 2.8.7l-.2.5c-.2.2.3-.2.5.1v1.1c.4 0 .4.7.4 1l-1-.1c0 .4-1 .3-1 .3.1.2.7.4.6.7 0 .5-.9.8-1.4 1 .8.2.5 1 0 1.6.4 0 1-.3 1.4 0 .3-.2.9-.8 1.4-.8 0 .2-.3 1-.5 1 .2.3 0 .6 0 1 0-.2.3-.1.5 0h-.4c.2.2.4.3.7.3l.2.8c.4-.8 1.2-1 1.5-.6 0-.4 0-.8.3-.9 0-.3.3-.5.4-.7l.5.9c.4-.2 1 .2 1.2.5-.1-.8 0-1.7.8-1.5-.5-.4-1.1-1-1-1.5 0-.3.7-.3 1-.4-.2 0-1-.3-1-.7-.2 0-.4 0-.7-.2l-.3-1.2.1-.4c-.2-.3-.9-.8-1-1.4.2 0 1 .3 1.2.5.2-.2.5-.1.8 0-.3-.4.3-1.1 1.1-1.2-.8-.2-1.1-1-.7-1.4-.4 0-.7 0-.9-.2-.2.2-1 .3-1.2.2.2-.5.8-.8 1.1-1h1l-.9-.5c0-.3.4-.7.5-.9-.7.2-1.6.2-1.5-.6l-.8.9-1-.4v-.3l-.2.2c-1.5-.6-2.7-1.2-2.9-2.7-.2-2.2 3-3.4 6.8-5.4-2.5 0-5.7.6-8.3 1v-5.6c0-.6-1-1.1-2.5-1.6v-.5l.2-.9a2 2 0 0 1 .2-.3 1.4 1.4 0 0 1 .2-.3 1.3 1.3 0 0 1 .4-.3h1.1c0 .3.2.6.3.8a1.8 1.8 0 0 0 .5.5l.3.1h.2a1 1 0 0 0 .7 0 1.4 1.4 0 0 0 .5-.4v-.2c.1 0 .2 0 .2-.2l.1-.2V108.6l.1-.2c.6.4 1 1 1.3 1.5.4-1.1 0-2.4-1-3.3l-.3-.1-.1-.2a.6.6 0 0 0-.5-.3c-.5 0-1 .3-1.5.5l-.5.1h-.9l-.5-.2h-.1l-.4-.5v-.7h.2c.3-.3 1-.8 1-1.2.4-1-.8-1.4 1-8.8 0-.2-.2-.4-.3-.5v-.1c.4-.2.3-.5 0-.7l.1-.1a4.2 4.2 0 0 0 .6-.4c1-.8.8-1.7.8-2l-1 .8a2 2 0 0 1-1.1.3c-.5 0-1-.3-1.3-.7-.4-.4-.6-.9-.7-1.4v-1.9l-.2-2.3c2 3.1 5 4.6 7.8 4.5a7.3 7.3 0 0 0 .9 0 7.9 7.9 0 0 0 2.5-.9c2.3-1.2 4-3.6 4.1-7.3v-1.2c0-.6-.2-1.2-.4-1.7 1.3-2.7.6-5.8 1.9-9 .6 1.6 1.4 3 2.8 4.1v-.3c-1.6-7.2 1-11.2 2.3-13.7h-.2c-1.7 1.3-3.5 3-5.3 5.1l-.3.3v.2c-.2 0-.2.2-.3.3l-.2.3-.3.4-.1.2-.6.8-.3.6-.6.9-.2.2a39 39 0 0 1-2.5 3.6h-.1.3c1.2-.7 2.5-1.6 3.8-2.9-1 2.7-.8 4.4-1.5 6.3l-.6-.6a6.7 6.7 0 0 0-5.2-1.9 6.7 6.7 0 0 0-2.4.8 5.7 5.7 0 0 0-.6.5 5.5 5.5 0 0 0-2 5.8l1 1.8h.1l.2.2c.5.5 1 .8 1.6 1h.1v.1a6 6 0 0 0 4.3.1l.3-.1c1-.4 1.8-1 2.5-1.8-.4 2.6-2.2 4.4-4.3 4.8h-.7A5 5 0 0 1 132 86c-1-1-1.8-2.9-2.5-4.4.3-.2.7-.2 1-.3a4 4 0 0 0-1.8-1.2v-.2l-.3-.4c.6-.6 1-.8 1.7-1-.5-.5-1.6-1-2.7-1l-.2-.4c.7-.9 1.2-1.1 2-1.3a4.3 4.3 0 0 0-3.3-1 6.9 6.9 0 0 1 8.3-2.4 5.6 5.6 0 0 1-.2-3.3v-.2c.8-2.3 3.3-3.3 5.7-3.2-1.7-2.2-1.5-4.2-.5-5.6l.1-.1c1-1.2 2.5-2 4-1.9-5-4.2 0-8.1 2.5-8.5h.3a7.3 7.3 0 0 1-1.5-2.5c-1.2-3.4 1.7-6.4 5.4-9.4H149.7l-1.2.5c-1.5.6-3 1.1-4.4 1.8l-2.2 1.1-.1-.1c-1.8-3 0-6.1 2.9-9.3l.7-.8c.2 0 .3-.2.4-.3h-.1l-.2.1-1 .6-2.2 1.1-.7.4-1.4.8a54.3 54.3 0 0 0-11.4 10.1l-.1.2-1-1 .1-1v-.2a6.5 6.5 0 0 0 .1-.5c1.3-.5 1.8-.5 2.6-.3-.2-.8-1.1-2-2.5-2.6l-.1-1.4c1-.6 1.4 0 2 .4.3-1.4 1.2-2 2.2-2.3 0-.7.2-1.4.5-1.9.4-.4.9-.8 1.6-1a2.3 2.3 0 0 1 .4-1.8l1.7-2.4.3-.8-1 .9-.7.3-.7.4h-.2l-1 .3-.6.2v-.3c.4-.9 1.2-2 1.5-3 0-.3.2-.6.1-.8-.5.7-1.1 1.3-1.9 1.8L128 29h-.1a6 6 0 0 0-1.4 1.3c-.6.6-1 1.3-1.2 2.2-.8-.5-1.7-.6-2.8-1a11.1 11.1 0 0 1-2.1-.8 7 7 0 0 1-.5-.3c0 .6.2 1.2-.3 1.6l-.2-.2c-.4-.2-.8-.4-1.6-.1-.3-.6-1-1.1-2.2-.8-.6-.7-1.2-.8-2.2-.6v.1l-1.3-.8a4.4 4.4 0 0 0 0-1.8c-.6-.2-1.1-.2-1.5 0h-.2a3.1 3.1 0 0 1-.3-1v-1l-.3.3V25.2l.4.2c1-.7 1-.9 1.3-1.3 0 0 .9 1.3 1.6 1.7.5.2 1.3.2 2 .2h1.1s-.5-.7-.6-1.2c-.2-.5-.1-1.1-.2-1.6-.2-.6-1-1.6-1-1.6a3.2 3.2 0 0 0 .3.2c.6.3 1 .3 1.6.2a7.7 7.7 0 0 0-.8-2.5 5.6 5.6 0 0 0-4.4-3H109.2l-.2.1-.5.1h-.1l-.2.1-.2.1h-.2l-.1.1h-.1l-.4.2-.1.1h-.1l-.1.1h-.1l-.1.1h-.1v.1l-.2.1-.2.1-.4.4-.1.1-.2.2-.1.2h-.1v.1h-.1v.1l-.2.2v.1l-.1.1v.1h-.1v.1a5.6 5.6 0 0 0-.2.4v.1h-.1v.2l-.1.2v.1l-.1.1V21h-.1v.5l-.1.1V23.8l.2.8.2 1c.2.6 0 1.3 0 1.8a6 6 0 0 0-.6-1.7c-.3-.5-.7-.9-1.3-1.1 0 0-.4 0-.7.5a4 4 0 0 0-.8 1.7c-.2 1.4 0 2.7-.8 4.3-.4 1-1.3 2-2.7 2.5-.7.2-.8-.1-.6-.5.4-.7 1.3-2 1.5-2.1.7-1 1.3-2.5 1.5-3.7.2-1.2.1-2.4-.3-3.6-.3-1-1.5-2-1.5-2-.6 0-.9.7-1 1.2-.1-.6-.2-1.2-.7-1.7l-.3-.3a7.4 7.4 0 0 1-.2-.3l-.1-.2-.1-.1a2 2 0 0 1-.3-1.4c0-.3 0-.5.2-.8.8.5 1.6 1 2.5 1.2.9.3 1.8.4 2.9 0 .4 0 .7-.2 1.2-.4 0-.5-.3-.9-.6-1.2l-1.2-1.1h.4c.5 0 1-.2 1.4-.3h.1l.7-.5c1.1-.7 1.7-2 1.6-3.6l-1.4.3c-1 0-1.6-.3-2.5-.3a5 5 0 0 0-2 .6c.5-.7.4-1.2.4-1.8a7 7 0 0 0-3.7.8c-1.1.7-1.8 2-2 3.8h-.1v.4l-.3.2a12.9 12.9 0 0 0-.3.4l-.3.3v.1l-.2.2a9 9 0 0 0-.5.8c0 .2-.1.3-.2.3v.2l-.1.2a5.4 5.4 0 0 0-.2.3V19.4l-.1.1V19.8l-.2.6v.8l.2.9v-.1l.3 1.2.1.3.4.8c-.4-.3-.9-.6-1.3-.7h-1.4c-.2 1.4 0 2.5.4 3.3.5.9 1.4 1.5 2.7 2l.3.2.4.5c.4 1.5 0 2.4-.7 3.2-1 .9-2.3.8-3.7.6-1.4-.2-2.7-1.1-4.5-2.5l-.8-.6h.5c.2 0 .4 0 .5-.2.2-.1.3-.3.3-.5s0-.4-.2-.6a.8.8 0 0 0-.4-.3h-.3.2v-.1c.2-.1.2-.2.2-.3L84 28h-.2v-.2l.1-.2.2.1.1-.4.4-.5-.2-.5v-.4h-.1v-.3h.3c.2 0 .2-.2.2-.3l-.1-.2h-.4a47.3 47.3 0 0 1 1-2l.2-.1c.2-.2.2-.3.2-.5v-.3l-.2-.2 1-2 .1-.1.2-.3a6.2 6.2 0 0 0-1-.2c0-.2-.1-.2-.2-.3h.2l.2-.1.2-.2a.6.6 0 0 0 0-.6l-.1-.1-.3-.2h-.2c-.2 0-.4.1-.5.3l-.2-.4h.1l.2-.1.1-.2.1-.3V17c0-.2-.1-.2-.2-.2l-.2-.2a.6.6 0 0 0-.4 0l-.3.4-.2-.1-.1-.1.2-.1.1-.2.1-.3v-.3l-.2-.1-.2-.2a.6.6 0 0 0-.6.2l-.1.2-.3-.1-.1-.1.1-.1a.6.6 0 0 0 .2-.5V15l-.1-.2-.3-.1h-.1c-.3 0-.5 0-.6.3v.2l-.5-.2a.6.6 0 0 0 .1 0 .6.6 0 0 0 .2-.5v-.3l-.1-.1-.1-.1-.2-.1a.6.6 0 0 0-.5 0v.1l-.2.2v.2a.6.6 0 0 0 0 .1h-.4v-.1a.6.6 0 0 0 .1-.7v-.2h-.1l-.2-.1H80a.6.6 0 0 0-.5.3v.1a.6.6 0 0 0 0 .4h-.2l-.2-.1v-.2l.1-.2v-.3l-.2-.2-.2-.1h-.2c-.2 0-.4.1-.5.3v.1a.6.6 0 0 0 0 .4h-.4V13h-.1l-.2-.1h-.2c-.2 0-.4 0-.5.2v.4l-.2.1v.1h-.7c.3-.3.6-.7.7-1.1h.1v-.7h-.1c-.2-.6-.7-1-1.3-1.2h1.1L76 10a2 2 0 0 1-.3-.8l.7.4.6.5V7.6l-.6.5-.7.4c0-.3.2-.6.3-.8l.5-.5zm.3 7.6v2.5h-.2l-2-.8H71c.6-.8 1.6-1.3 2.8-1.7zm2.2 0c1.2.4 2.2.9 2.8 1.6h-.4l-1.8.6-.6.2V16zm-5 .1-.2.2V15h.2zm7.8 0h.2v.2l-.2-.2zm-9 .4.1.5h.1v.2l-.2.1a.6.6 0 0 0-.4 0h-.1l-.2.1-.2.1a.6.6 0 0 0 0 .5 3 3 0 0 0-.6.4h-.1v.1l-.9.8h-1l-.6.3a8.4 8.4 0 0 1 4-3zm10.3 0h.1a9 9 0 0 1 1.7.9c1 .6 1.7 1.4 2.4 2.4l-.6-.3h-.3c-.5-.2-1-.2-1.3-.2h-.5V17.7L81 17V17h-.2l.1-.4v-.2l-.2-.2-.2-.1a.6.6 0 0 0-.5 0L80 16l-.1-.1v-.1h.1l.1-.2v-.3zM39 31.5c.4.3.8.4 1.3.6-.8.2-1 .9-1.6 1l.2.4-.7.3h.1c.2.2.5.2.8.2l.5.6a14.6 14.6 0 0 1-2 1 6 6 0 0 0-.2-1.6c.5-.6.8-1.2.7-1.9l.9-.6zm72 0 1 .6c-.2.7 0 1.3.6 1.9-.1.4-.2 1-.1 1.7a13.3 13.3 0 0 1-2.1-1.1l.5-.6.8-.1.1-.1-.7-.3.2-.5c-.5 0-.8-.7-1.6-.9.5-.2 1-.3 1.3-.6zM36 35l1 .9-2 .7-.3.2v-1.2A9 9 0 0 0 36 35zm78 0 1.4.6v1.2l-.4-.2-2-.7a6 6 0 0 1 1-.9zm-73.7.1.5.3-.3 1-.4.7v.1l.2-.2c.6-.3 1.2-.8 1.7-1.4H42.9c.7-.2 1.5-.3 2.3-.3 1 .1 1.9 1 3.3 1.5.8.3 2 .6 2.7.4a4 4 0 0 1 1.3-.1c.4.2-.2.8-1.2 1.1a2.9 2.9 0 0 1-.7.2c-1.4 0-2.6-.8-4-1-1.1 0-2 .9-2 .9a1.8 1.8 0 0 0 1 1l.1.1c-.4-.1-.9-.2-1.4 0l-1.6.3c-.4 0-1 0-1.4-.3 0 .4.2 1 .6 1.6.4.6 1 1.3 2 1.8.6.3 1.6.4 2.4.3l-1 1a7 7 0 0 0-.4.5s1.4.9 2.5.9H47.7a8 8 0 0 0 1.8-.4c.4.7 1 1.4 1.8 2H51.6v.1h.1v.1h.2l.1.1.2.1.3.2h.3v.1h.2l.1.1h.2l.4.2h.2l.2.1h.2v.1h.5v.1h.5v.1l.9.1h1v.1l-.2.2-.2.2h-.1l-.3.3h-.1l-.2.2-.2.1-.3.2a7.3 7.3 0 0 1-.6.3l-.8.3-.3.1-.5.2h-1v1.8-1.5l-.5.2v-.6c-.3.2-.5.5-.6.8l-2.2.8-1 .4c-2-.6-3.8-1.2-5.7-1.5a9 9 0 0 1-.6-.6l-.2-.1c0-.4-.2-.7-.4-1l-.4-.5c-.3-.4-.7-.7-1.3-1-.3-1-1.3-1.4-2.3-1.8l-.4-.5h-.1c0-.2-.2-.2-.2-.3h-.1l-.2-.1-.2-.1-.5-.3H35l-.4-.4v-.1h-.1c-.4-.4-.8-.6-1.2-.7a4.2 4.2 0 0 0-.8-.2h-.2c-.2-.5-.5-.7-.7-.9h-.1l-.6-.5c.6-1.2 2.2-1.5 3.5-1.6 1.1 0 1.7.8 1 1.8 1 .1 1.8-.4 2.4-1.3a2.2 2.2 0 0 0 2 .7c.6 0 1.1-.5 1.3-.5-.9-.1-1.3-.4-1.6-.7v-.1c-.5-.6-.2-1.4-.5-1.6h-.3c-.3-.6-.7-1.3-1.3-1.7 0 .3 0 1-.3 1.7-.6 0-1.2 0-1.9.2a6 6 0 0 0-.6-1l4.3-2c.6-.2 1-.5 1.4-.9zm69.4 0c.4.4.8.7 1.4 1l4.3 2a6 6 0 0 0-.6.9l-1.9-.2c-.2-.7-.4-1.4-.3-1.7-.6.4-1 1.1-1.3 1.6h-.3c-.4.5.4 2.2-2 2.5.2.1 1.8 1.3 3.2-.2.5.8 1.2 1.3 2.2 1.3h.2c-.7-1-.1-1.9 1-1.8 1.3 0 2.9.4 3.6 1.5l-.1.1v.1h-.2c-.3.3-.8.5-1.2 1.3h-.5a4 4 0 0 0-.5.2l-1.2.6v.1l-.5.4h-.1l-.4.2-.5.2h-.2l-.2.2-.3.2a4 4 0 0 0-.5.6c-1 .4-2 .9-2.3 1.8-.5.3-1 .6-1.2.9l-.4.5-.5 1-.2.1a9.4 9.4 0 0 1-.6.7c-2 .3-3.8.9-5.7 1.5l-1-.4-2.2-.8c-.1-.3-.3-.6-.6-.8v.6l-.5-.2v-.3h-1a18 18 0 0 1-1.2-.4 9.9 9.9 0 0 1-1-.5 6.5 6.5 0 0 1-.5-.3l-.3-.2-.2-.2-.1-.1h-.1l-.1-.2-.2-.1v-.1h-.1 1v-.1h.2l.6-.1H95l.3-.1h.3l.1-.1.5-.1h.2V48h.2l.2-.1h.1l.1-.1.3-.1a10 10 0 0 0 .5-.2h.1v-.1h.2v-.1h.1l.1-.1.2-.1h.1l.2-.2c.8-.5 1.4-1.2 1.8-2a7 7 0 0 0 2 .5c1.2 0 2.6-1 2.6-1a7 7 0 0 0-.4-.5l-1-.9c.8.1 1.8 0 2.4-.3 1-.5 1.6-1.2 2-1.8.4-.6.6-1.2.6-1.6-.4.2-1 .3-1.4.3l-1.6-.4a3.4 3.4 0 0 0-1.4.1c.6-.2 1-.6 1.1-1.1 0 0-.9-1-2-.8-1.2 0-2.3.7-3.4.9h-.1c-.4 0-.8 0-1.2-.2-1-.4-1.7-1-1.2-1.1h1.2c.7.3 1.7 0 2.5-.2h.3c1.4-.5 2.2-1.5 3.3-1.6l3.2.3c.5.6 1 1 1.7 1.4l.3.2-.1-.2-.4-.7c-.2-.3-.2-.6-.3-1l.5-.1zm-76.5 1.2 1 .7a16.7 16.7 0 0 0-2 1v-.8l.7-.6s.2 0 .3-.2zm83.6 0c.1.3.2.3.3.3l.8.6v.8l-.4-.2-1.6-.8c.2-.3.6-.5 1-.7zm-85.6 1.6.4.4c-1 .6-1.9 1.3-2.7 2.1v-.1c.4-1 1.3-1.6 2.3-2.4zm87.6 0a15 15 0 0 1 1.4 1.1c.4.4.7.8.8 1.3v.1c-.7-.8-1.7-1.5-2.6-2.1l.4-.4zm-84.8.4-.3 1c-.5 0-1 .2-1.5.4l-.1-.2c.6-.5 1.2-.8 1.9-1.2zm82 0 2 1.2-.2.2-1.5-.5-.3-.9zM82.2 42l.1.3 1.2 2 .2.1.3.4.3.3v.4c.3.5.7.7 1.2.8l.2.2c.2 0 .3.2.5.3 0 .2.2.4.3.5-.6-.2-1.1-.2-1.6-.2a8.5 8.5 0 0 1-4-3.3l-.1-.3v-.1l1.2-1.2.2-.2zm-14.4.1v.1l1.3 1.2c-.4.8-1 1.5-1.6 2.1-.7.7-1.5 1.2-2.5 1.6-.5 0-1 0-1.4.2l.2-.5.4-.3.3-.2c.5-.1 1-.3 1.1-.8l.1-.1V45l.3-.3.3-.4.2-.2 1.2-1.9zm-9.3 1h.4a1.5 1.5 0 0 1 .4.6 3 3 0 0 1-.7.6 6.7 6.7 0 0 0-.2-.6 1.7 1.7 0 0 0-.4-.6h.5zm33 0h.5l-.2.2c0 .2-.2.3-.3.5l-.1.5a3 3 0 0 1-.7-.6 1.5 1.5 0 0 1 .4-.6h.4zm-68.8 2.3h.6a31.1 31.1 0 0 0 .5 1.5l-.2-.2a46 46 0 0 0-1-1.3zm104.6 0a46 46 0 0 0-1.2 1.5l.6-1.4h.6zm-39.6 3 .3.1-.1.2-.2-.4zm-25.6.1-.1.2v-.2zm26 .2.5.5.1.6c-.2 0-.4 0-.5-.2 0 .3 0 .5-.2.7v-.5zm-26.4 0 .1 1v.6l-.1-.6c-.1.2-.3.2-.4.2l.1-.7c0-.2.2-.3.3-.4zm-36 1.9c.2 0 .2.2.3.3l-.5 1.2h-.3V52l.1-.3.5-1.1zm98.5 0c.3.4.5.9.6 1.4h-.3c0-.3-.3-.7-.5-1l.2-.4zm-98.9 2a4 4 0 0 0 .1 1.8c.5-.6 1-.9 2.2-1.2l1 1.5a4.3 4.3 0 0 0-1 3.4c.7-.5 1.2-.8 2.4-1a11 11 0 0 1 .5 2c-.4 0-.7.3-1 .5l-1.8-.9-.1-.1-.6-.6-.2-.1a8 8 0 0 1-1.2-1.7c-.5-1-.7-2.1-.6-3.3l.3-.3zm99.4 0 .3.3c.1 1.2 0 2.4-.6 3.3a7.2 7.2 0 0 1-2.5 2.7l-.1.1a6 6 0 0 1-1.3.6l-1-.6a8 8 0 0 1 .5-1.9c1.2.2 1.7.5 2.3 1 .2-.9 0-2.3-1-3.4l1-1.5a3.9 3.9 0 0 1 2.2 1.1l.1.1a4 4 0 0 0 0-1.8zm-72.4 2.8v2.1c-.2-.3-.5-.5-.6-.8-.2 0-.3 0-.3.3.3.1.5.3.7.6H52l-.8.3-.5.1.1-.6.3-1 1-.3h.2v-.7zm45.3.6h.3c.3.1.7.4 1 .4l.3 1 .1.7a9 9 0 0 1-1.4-.5c.2-.3.4-.5.7-.6 0-.3 0-.3-.3-.3l-.6.8V56zm-52.5.4h.8c.4.2.9.5 1.2 1l.2.7h-.8c-.6-.2-1.3-.2-2-.3a5 5 0 0 0-.3-.8v-.5h.1l.8-.1zm59.8 0h.8v.4l.1.2a5 5 0 0 0-.3.8 20.2 20.2 0 0 0-2.5.3H102.7l.2-.7c.2-.3.5-.6.9-.8h.2l.1-.1.8-.1zm-52.6 3.9v2.9-.6H52l-.5-.1.3-.1c.1 0 .3 0 .4.2v-2.3zm.1.1.1.1v-.1zm-1.2.3.2.1c.4.3.2 1 0 1.6l-.3-.1-.3-1v-.4l.4-.2zm47.6 0c.1 0 .3 0 .4.2v.4l-.3 1-.4.1c-.1-.5-.3-1.3.1-1.6h.2zm-51.4.6c.2.3 0 .8-.2 1 .6-.2 1.3-.3 1.3.4.2-.4.5-1 1-1l.1.5-.5.3a1.2 1.2 0 0 0 .2 1.9l-.1.2-.7.8h-.6c-.2 0-.2-.3-.2-.6-.1.1-.4.4-.6.4 0 .2-.1.6-.4.8v-.7c-.2 0-.2-.2-.3-.3 0 .2-.5.1-.8-.2.1.4-.2.8-.4.7.1.1.2.3.1.4.2 0 .4.4.4.5-.3 0-.6-.2-.8-.3-.1.2-.5.2-.7.1.3.3.5.7.1.9.3 0 .7 0 .8.2l-2.1-.2 1.7 1.3c-.3 0-.6-.2-.8-.3.2.4-.2.5-.6.5.1 0 .4.3.3.5l.8.4-.6.1-.4.2c.3.1.2.6-.2.8.4 0 .8.2.7.4.2 0 .3-.1.4 0 .1-.2.4-.5.5-.4l-.3.8c.3 0 .2.4.2.6.3-.3.6-.5.8 0v-.1l.2.1-.2 1.3h-.1a1.2 1.2 0 0 0-1.1 1.8l-.5.3c-.3-.3-.1-1 0-1.4-.5.5-1-.1-1.2-.7 0 .3-.2.9-.6.9v.8l-.3.3-.2-.6c-.3 0-.5-.2-.6-.4 0 .4-.7.6-1.3.2.4.6.2 1.3-.2 1.3.2.2.4.4.4.6.2 0 .4 0 .6.2-.2.1-.3.2-.3.4h-.8c0 .2-.2.3-.5.4h-.1l-.3.1a3 3 0 0 0-1.3-.4H36.8l-1 .3-.1.2h-.1l-.4-.1c-.6-.2-1-.2-1.6.2l-.2.1v.1l-.2.2H33l-1.4.3-1 .1.2-.4.2-.6.1-.2V77l.3-.1.4-.2v.1l.2-.1a2 2 0 0 0 1-.9l.1-.1.2-.4.2-.1.8-.4.6-.4h.1l.5-.6v-.1l.2-.3.1-.3h.2l.4-.1h.1c.4-.2.8-.5 1.2-1l.3-.3v-.2l.2-.2v-.2l.5-.2h.1l1-.9.4-.7V69l.2-.1v-.3l.2-.2a5.3 5.3 0 0 0 .5-.3l.4-.5.4-.5h.1V67l.4-.8.1-.9.6-.6.3-.4.1-.3a3 3 0 0 0 .4-1l.1-.5V61.7a33.7 33.7 0 0 1 3-.4h.4zm55.2 0c.8 0 1.9.1 3.4.4V62.5a3.8 3.8 0 0 0 .6 1.8l.3.4.6.6.1.8.4.9.5.6.3.5h.1l.3.2.2.1.2.2v.2l.1.2.1.3.4.8 1 1V71c.2 0 .4.2.5.3h.1l.2.3v.1l.3.4c.4.5.8.8 1.2 1h.1l.4.1h.1l.2.2v.1l.2.3v.1l.5.5.1.1.6.4.8.4h.2v.1l.2.3.1.2c.3.5.7.7 1 .9l.2.1.4.1.2.1v.2l.2.2.2.6.2.4h-1l-1.4-.3h-.2l-.2-.3v-.1h-.2c-.5-.5-1-.5-1.6-.3h-.4a391.8 391.8 0 0 0-1.1-.3h-.4a3 3 0 0 0-1.3.3h-.2v-.1h-.2c-.3-.1-.5-.2-.5-.5h-.8l-.3-.3.6-.2c0-.2.2-.4.4-.6-.4 0-.6-.7-.2-1.3-.6.4-1.3.2-1.3-.2-.1.2-.3.5-.6.4 0 .2 0 .4-.2.6 0-.1-.2-.3-.4-.3v-.8c-.3 0-.5-.6-.5-.9-.3.6-.7 1.2-1.2.7.1.4.3 1 0 1.4l-.5-.3.1-.5c0-.7-.5-1.3-1.2-1.3h-.1l-.1-.2-.1-1c.1-.2.3-.3.3-.5.2 0 .5.1.7.3 0-.2-.1-.5.1-.6l-.3-.9.5.4.4.1c0-.2.3-.5.7-.4-.3-.2-.4-.7-.1-.8-.2 0-.4 0-.4-.2l-.7-.1.8-.4c0-.2.3-.4.4-.5-.4 0-.8-.1-.7-.5-.2.1-.5.4-.7.3L107 67l-2.2.2c.2-.2.6-.2.8-.2-.4-.2-.2-.6.1-.9-.1 0-.5.1-.6-.1l-.8.3.3-.5c0-.1 0-.3.2-.4-.3 0-.6-.3-.5-.7-.2.3-.7.4-.8.1 0 .2 0 .4-.2.4v.7c-.3-.2-.4-.6-.5-.8-.2 0-.4-.3-.5-.4 0 .4-.1.8-.5.7h-.2l-.8-1v-.1a1.2 1.2 0 0 0-.4-2l.1-.6c.4 0 .8.6 1 1 0-.7.7-.6 1.3-.4-.1-.2-.4-.7-.2-1zm-4.5 1 .3.2-.5.1h-.2l.4-.2zm-47 1.5.6.2c0 .4-.6.7-1 1 .7 0 .6.6.4 1.2.2-.1.7-.4 1-.2l.2-.2v-1.4l.1 11c.2 6.3.8 11.4 3.7 15.4 4 5.4 10.5 9.2 18.9 13 8.4-3.8 15-7.6 18.9-13 3-4 3.5-9 3.7-15.4v-9.6l.3.2c.3-.2.8 0 1 .2-.2-.6-.3-1.3.4-1.3-.4-.2-1-.5-1-1h.5v-.1a1.2 1.2 0 0 0 1.4.8l.7 1-.1.2-.2.2-.7-.3v.6c0 .2.3.6.2.8l-.5-.3c-.1 0-.3 0-.4-.2 0 .3-.3.6-.7.5.3.2.4.7.2.8.1 0 .3 0 .4.2h.6c-.2.3-.6.4-.8.5 0 .2-.2.4-.4.5.4 0 .8.1.7.5.2-.1.5-.4.7-.3l-1.7 1.3 2.2-.2-.8.2c.4.2.2.6-.1.9h.6c.2 0 .6-.3.9-.2l-.4.5-.1.4c.2 0 .5.3.4.7.2-.3.7-.4.8-.2 0-.1 0-.3.2-.4l.1-.6.4.8c.2 0 .4.2.5.4 0-.3 0-.5.2-.6a1.2 1.2 0 0 0 .5 0l.3 1.2a1.2 1.2 0 0 0-.4 1.6l-.5.3c-.2-.3 0-1 0-1.4-.4.5-.9-.1-1.1-.7 0 .3-.3.9-.6.9v.8l-.4.3-.2-.6c-.2 0-.4-.2-.6-.4 0 .4-.7.6-1.2.2.3.6.1 1.3-.3 1.3.2.2.5.4.5.6.1 0 .4 0 .5.2l-.3.4h-.8c0 .3-.6.5-.9.5.6.3 1.2.7.7 1.2.4-.1 1.1-.3 1.4 0 0 .2-.2.3-.3.5l-.2.9v.4c0 .3 0 .6.2 1l.3.4c-.3.2-1 .1-1.4 0 .5.5 0 .9-.7 1.1.3.1.9.3 1 .6h.7l.3.4-.5.2c0 .2-.3.4-.5.6.4 0 .6.7.3 1.3.5-.4 1.2-.2 1.2.2.2-.2.4-.5.6-.5l.2-.5.4.3v.8c.3 0 .5.6.6.9.2-.6.7-1.2 1.1-.7 0-.4-.2-1 0-1.4.2 0 .3.2.5.3a1.2 1.2 0 0 0 .4 1.5l-.3 1.2h-.4c-.2 0-.2-.3-.2-.6-.1.1-.4.4-.6.4 0 .1-.1.6-.4.7v-.6c-.2 0-.2-.2-.2-.4-.2.3-.6.2-.8-.1 0 .4-.2.8-.5.7.1 0 .2.3.1.4.2 0 .4.4.4.5-.3 0-.6-.3-.8-.3-.1.2-.5.1-.7.1.3.3.5.7.1.9.3 0 .7 0 .8.2l-2.1-.2 1.7 1.3c-.3 0-.6-.2-.8-.4.2.4-.2.6-.6.6.1 0 .4.3.3.5.2.1.7.2.8.4h-.6c0 .2-.2.3-.4.3h.1l-1-.2c-.8-1.1-2-1.6-3.3-1.3.8.5 1.5 1 1.7 1.9l-.2.3V93c-.2.4-.5.8-.8.8-.3-.2-.7-.2-1 0l-.5.6a.4.4 0 0 0-.4 0h-.2l-.2-.1h.1c-1.2.4-2.1 1.2-2.3 2.4.7-.5 1.5-.8 2.4-.7v.7c-.3 0-.6.2-.8.5l-.3.3c-.3.2-.4.5-.5.8l-.2.5c-.4 0-.7-.6-1-1 0 .7-.6.6-1.2.3.1.3.4.8.2 1.1l.5.5v.5l-.6-.2h-.7c.3.4 0 1-.7 1.1.6.2 1 .8.7 1.1h.7l.6-.1v.5l-.5.5c.2.3 0 .8-.2 1 .6-.2 1.3-.3 1.3.4.2-.4.5-1 1-1v.5l-.4.3c-.3.3-.4.7-.3 1.1l-1.1.7v-.1l-.3-.2c0-.2.1-.5.3-.7-.2 0-.5.1-.6-.1l-.9.3.4-.5c0-.1 0-.3.2-.4-.3 0-.6-.3-.5-.7-.2.3-.7.4-.8.2 0 .1 0 .3-.2.3v.7c-.3-.2-.4-.6-.5-.8-.2 0-.4-.3-.5-.4 0 .4-.1.8-.5.7.1.2.4.5.3.7l-1.3-1.7.2 2.2-.2-.8c-.2.4-.6.2-.9-.1 0 .2.1.5-.1.6l.3.8-.5-.3c-.1 0-.3 0-.4-.2 0 .3-.3.6-.7.5.3.2.4.7.2.8.1 0 .3 0 .4.2h.6c-.2.3-.6.4-.8.5 0 .2-.2.4-.4.5.3 0 .5 0 .6.2a1.2 1.2 0 0 0 0 .5l-1.2.3a1.2 1.2 0 0 0-1.6-.4l-.3-.5c.3-.2 1-.1 1.4 0-.5-.5 0-.9.7-1.1-.3-.1-.9-.3-1-.6h-.7l-.3-.4.6-.2c0-.2.2-.4.4-.6-.4 0-.6-.7-.2-1.3-.6.4-1.3.2-1.3-.2-.2.2-.4.5-.6.5l-.2.5-.4-.3v-.8c-.3 0-.5-.6-.5-.9-.3.6-.7 1.2-1.2.7.1.4.3 1 0 1.4-.2 0-.3-.2-.5-.3l-.9-.2h-.4c-.3 0-.7 0-1 .2l-.4.3c-.3-.3-.1-1 0-1.4-.5.5-.9 0-1.1-.7-.1.3-.3.9-.6 1v.7l-.4.3-.2-.5c-.2 0-.4-.3-.6-.5 0 .4-.7.6-1.3.2.4.6.2 1.3-.2 1.3.2.2.5.4.4.6l.6.2-.3.4h-.8c0 .3-.6.5-.9.6.6.2 1.2.6.7 1.1.4-.1 1-.2 1.4 0l-.3.5a1.2 1.2 0 0 0-1.6.4L67 109v-.4c0-.2.4-.2.7-.2-.1-.1-.4-.4-.4-.6-.2 0-.6-.1-.7-.4h.6c0-.2.2-.2.4-.3-.3 0-.2-.5.1-.8-.4.1-.8-.2-.7-.4-.1.1-.3.2-.4.1 0 .2-.4.4-.5.4 0-.3.2-.6.3-.8-.2-.1-.2-.5-.1-.7-.3.3-.7.5-.9.1 0 .3 0 .7-.2.8l.2-2.1-1.3 1.6.3-.7c-.4.2-.5-.2-.5-.6 0 0-.3.4-.5.3l-.4.8v-.6c-.2 0-.3-.2-.3-.4-.1.2-.6.2-.8-.2 0 .4-.2.8-.4.7 0 .1.2.3 0 .4l.5.5-.9-.3c0 .3-.4.2-.6.2.2.1.3.4.3.5a1.2 1.2 0 0 0-.4.4l-1-.7a1.2 1.2 0 0 0-.9-1.4l.2-.5c.4 0 .7.6 1 1 0-.7.6-.6 1.2-.4-.1-.2-.4-.7-.2-1 0-.2-.3-.3-.5-.5v-.6l.6.3c0-.2.4-.2.7 0-.3-.4 0-1 .7-1.2-.6-.1-1-.7-.7-1l-.7-.1-.6.2v-.5l.5-.5c-.2-.3 0-.8.2-1-.6.2-1.3.3-1.3-.4-.2.4-.5 1-1 1v-.5c-.2-.3-.3-.6-.6-.8l-.3-.3c-.2-.3-.5-.5-.8-.5V96c.9-.1 1.7.2 2.4.7-.2-1.2-1.1-2-2.3-2.3v-.1H56.8l-.4.1-.6-.7h-.9v.1c-.3 0-.6-.4-.7-.8l-.1.2-.2-.3c.2-.8 1-1.4 1.7-1.9-1.2-.3-2.5.2-3.3 1.3-.3 0-.7.1-1 .3l-.3-.2-.6-.1.8-.4c0-.2.2-.4.4-.5-.4 0-.8-.1-.7-.5l-.7.3 1.7-1.3-2.2.2c.2-.2.5-.2.8-.2-.4-.2-.2-.6.1-.9-.2 0-.5.1-.6-.1l-.9.3.4-.5.1-.4c-.2 0-.5-.3-.4-.7-.2.3-.7.4-.8.1 0 .2 0 .4-.2.4l-.1.6c-.2-.1-.3-.5-.4-.7-.2 0-.4-.3-.5-.4 0 .2 0 .5-.2.6h-.5L46 87a1.2 1.2 0 0 0 .4-1.5l.5-.3c.2.3 0 1 0 1.4.4-.5.9 0 1.1.7 0-.3.3-.9.6-1v-.7l.4-.3.2.5c.2 0 .4.3.6.5 0-.4.7-.6 1.2-.3-.3-.5-.1-1.2.3-1.2-.2-.2-.5-.4-.5-.6l-.5-.2.3-.4h.8c0-.3.6-.5.9-.6-.6-.2-1.2-.6-.7-1.1-.4.1-1.1.2-1.4 0 0-.2.2-.3.3-.5l.2-.9v-.4c0-.4 0-.7-.2-1l-.3-.4c.3-.3 1-.1 1.4 0-.5-.5 0-1 .7-1.2-.3 0-.9-.2-1-.6h-.7l-.3-.3.5-.2c0-.2.3-.4.5-.6-.4 0-.6-.7-.3-1.3-.5.4-1.2.2-1.2-.2-.2.2-.4.5-.6.4l-.2.6-.4-.3v-.8c-.3 0-.5-.6-.6-.9-.2.6-.7 1.2-1.1.7.1.4.2 1 0 1.4l-.5-.3.1-.5c0-.5-.2-.8-.5-1l.3-1.3a1.2 1.2 0 0 0 .4 0c.2 0 .2.4.2.7.1-.2.4-.4.6-.4 0-.2.1-.6.4-.8v.7c.2 0 .2.2.2.3.2-.2.6-.1.8.2 0-.4.2-.8.5-.7-.1-.1-.2-.3-.1-.4-.2 0-.4-.4-.4-.5.3 0 .6.2.8.3.1-.2.5-.2.7-.1-.3-.3-.5-.7-.1-.9-.3 0-.7 0-.8-.2l2.1.2-1.7-1.3c.3 0 .6.2.8.3-.2-.4.2-.5.6-.5-.1 0-.4-.3-.3-.5-.2-.1-.7-.2-.8-.4l.6-.1.4-.2c-.3-.1-.2-.6.2-.8-.4 0-.8-.2-.7-.4h-.5c0 .2-.3.5-.4.5l.2-.9c-.2 0-.1-.4 0-.6l-.6.3a1.2 1.2 0 0 0-.4-.4l.7-1.1a1.2 1.2 0 0 0 1.4-.8zm-5.7 12.3.3.2c-.2.5-.7 1.1-1.2 1-.2 0-.3-.2-.4-.5l.4-.2.9-.5zm59.2 0 1 .5.3.2c0 .3-.2.6-.4.6-.5 0-1-.6-1.2-1l.3-.3zm-58.7.3.4.2.3.2c-.4 0-.7-.1-.7-.4zm58.2 0c0 .3-.3.4-.7.4l.3-.2.4-.2zM44 77zm62.2 0zm-92.7.3a4 4 0 0 1 2.5.8c.3.4.7.8.8 1.5.2 1.8-1.4 3-3 3-1.7 0-3-1.1-3.8-2.6a3.9 3.9 0 0 1 3.5-2.7zm123.2 0c1.8 0 3.1 1.3 3.6 2.7-1 1.5-2.2 2.6-4 2.6-1.5 0-3.1-1.2-2.9-3 .1-.7.5-1.1.8-1.5.6-.4 1.2-.7 1.9-.8h.6zm-92.9.1s-.1.2-.3.1v.7l-.6-.6c.3 0 .6 0 1-.2zm62.6 0c.3.2.6.3.9.2l-.6.6v-.7l-.3-.1zm-59.2 0c.3.2.6.3.8.2-.3.3-.6.7-1 .9 0 .2 0 .2.3.3.1-.4.5-.7.9-1-.1.3.1.8.4 1.2 0 .2 0-.1.2-.2l.4.6c.2.2.2.7.5.9-.3.2-.3.7-.5 1l-.4.5c-.2 0-.2-.4-.2-.2-.3.4-.5.9-.4 1.2-.4-.3-.8-.6-1-1l-.2.3c.4.2.7.5 1 .9-.2 0-.5 0-.8.2l.1-.5c-.3-.3-1-.7-1.2-1.3.2 0 1 .1 1.2.3.2-.2.6-.1 1 0-.5-.4 0-1.2.8-1.4-.8-.2-1.3-1-.9-1.4-.3.1-.7.2-.9 0-.2.2-1 .4-1.2.3.2-.6 1-1 1.2-1.3l-.1-.5zm55.8 0-.1.5c.3.3 1 .7 1.2 1.3-.2 0-1-.1-1.2-.3-.2.2-.6.1-1 0 .5.4 0 1.2-.8 1.4.8.2 1.3 1 .9 1.3l.9.1c.2-.2 1-.4 1.2-.3-.2.6-1 1-1.2 1.3l.1.5c-.3-.2-.6-.3-.8-.2l1-1-.3-.2-.8 1c0-.3-.2-.8-.5-1.2 0-.2 0 .1-.2.2a19 19 0 0 0-.4-.6c-.2-.2-.2-.7-.5-1 .2-.1.3-.6.5-.8l.4-.6c.2 0 .2.4.2.2.3-.4.5-1 .5-1.2l.8 1c.2 0 .2-.1.3-.3-.4-.2-.7-.6-1-.9.2 0 .5 0 .8-.2zm-60.2.4.7.6-.1.3c-.3.2-.7-.3-.5 0 .1.6.3 1.2.7 1.5H43a2 2 0 0 0-1-1.2v-.2c.2 0 .2.4.3.2.3-.4.5-1 .4-1.2zm64.6 0c0 .3.1.8.4 1.2 0 .2 0-.1.2-.2l.1.2h-.1a2 2 0 0 0-.9 1.2h-.5c.4-.3.6-.9.7-1.5.2-.3-.2.2-.5 0v-.3l.6-.6zM43 80.4h.5c-.2 0-.3.2-.4.4v-.4zm64 0v.2l-.1.2-.4-.4h.4zm-63.9.4zm63.8 0zm-1.5 2.4c.3 0 .4.3.5.5l-.4.3-.9.5-.3-.2c.2-.5.6-1 1-1h.1zm-61 0h.1c.5 0 1 .6 1.2 1l-.3.3-1-.5-.3-.3c0-.2.2-.5.4-.5zm2 .6h.2a22.5 22.5 0 0 0-.7.4c0-.3.3-.4.6-.4zm57.1 0c.3 0 .6.1.6.4l-.4-.2-.3-.2h.1zm-70.9 1.8c2.6 0 4 2.7 3.8 6 0 .8-.6 1.4-.9 2.2l-.1.8c-1.4-.5-2-1-2.5-1.7a4.8 4.8 0 0 0 3 4c1.5.7 3.3.8 5 .9 1 0 1.9 0 2.7.3.6 0 .6.4 1.3.5l.3-.1.3-.3a2.1 2.1 0 0 1 .2-.3.7.7 0 0 1 .2-.1h.5c.1.2.2.4.1.6 0 .3-.6.5-.6.5-.4.2-1.1.2-1.6.5l-.2.1c-.3.2-.3.5-.2.8l.2.3c-.3 1.2 0 2.3.8 3 0-.6 0-1.2.3-1.7.7.5 1.4.6 1.8.4h.4l.5-.1v.5l-.5.5c.2.3 0 .8-.2 1 .6-.2 1.3-.3 1.3.4.2-.4.5-1 1-1l.1.5c0 .3.3.6.5.8l.3.3.8.5.5.1c0 .4-.6.8-1 1 .7 0 .6.7.4 1.3.2-.1.7-.4 1-.2l.5-.6h.5l-.2.6c.2.2.1.5 0 .7.3-.2.7 0 .9.3l-6.8-.2h-1c-5.7 0-11.4.3-16.2.8l-.1-.2V109h-.1v-.1h-.1v-.1h-.1l-.3-.2a.6.6 0 0 0-.2 0c-.5 0-1 .6-1.5.7a1.3 1.3 0 0 1-.5.1h-.4l-1-.2h.1a1.7 1.7 0 0 0 .9-.7h.4a4.5 4.5 0 0 0 .8 0 1.7 1.7 0 0 0 .8-.4v-.2l.2-.2a1.4 1.4 0 0 0 0-.7 2 2 0 0 0-.4-.9c.6-.2 1.2-.3 1.9-.3-.9-1-2.2-1.1-3.5-.6h-.1c-.5 0-.8.2-.9.6v.7c0 .3-.2.5-.4.7-.3.3-.7.5-1.4.6v-.4l-.1-.6c-.8-2.3-1.3-2.9-.7-6.4.2-1.2.2-2.7.3-3.9v-.4l.1-.3v-.4h.2a1.5 1.5 0 0 0 .6 0l.3-.2a2 2 0 0 0 .9-.8l.2-.4c.5 0 .9 0 1.2-.2l.2-.1.5-.6v-.2l.3-.4c.9-.3 1.8-.6 2.2-2l.2-.2.4-.3.3-.2c0-.2.2-.3.3-.4l.1-.2.1-.2v-.1c.2-.4.2-.7.2-1.2l.1-.2.3-.5V87l.4-.9v-.4h.1zm84.6 0h.3c0 .5.1.9.3 1.3v.2h.1l.2.3.2.3c0 .6 0 1 .3 1.4v.1l.1.1c0 .2.2.3.3.5l.2.2h.1l.3.3.3.1c.4 1.5 1.3 1.8 2.2 2.1l.3.4v.2l.5.6h.2c.3.2.7.3 1.2.3l.2.4c.2.4.6.6 1 .8l.2.2h.8v1.1l.4 3.9c.6 3.5 0 4.1-.7 6.4l-.1 1c-.7-.1-1.1-.3-1.4-.6l-.4-.7v-.7c-.1-.4-.4-.6-.9-.6h-.1c-1.3-.5-2.6-.4-3.5.6.7 0 1.3 0 1.9.4a1.8 1.8 0 0 0-.3.6l-.1.4c0 .2 0 .6.2.8l.5.4h.1a1.8 1.8 0 0 0 .4.2h.2a4.6 4.6 0 0 0 .8 0h.1c.2.3.5.4.8.6a6.3 6.3 0 0 1-1.2.2h-.6c-.5-.2-1-.8-1.5-.8a.5.5 0 0 0-.2 0h-.1a.7.7 0 0 0-.1.1.9.9 0 0 0-.3.2v.4l-.2.2c-7-.7-16.3-1-24-.6.3-.3.6-.5.8-.3v-.7l-.1-.6h.5l.5.6c.3-.2.8 0 1 .2-.2-.6-.3-1.3.4-1.3-.4-.2-1-.6-1-1l.5-.1c.3 0 .6-.3.8-.5l.3-.3.5-.8.1-.5c.4 0 .8.6 1 1 0-.7.7-.6 1.3-.4-.1-.2-.4-.7-.2-1l-.6-.5v-.5c.3 0 .5 0 .6.2l.4-.1h.6c.4 0 .8-.1 1.2-.4.2.5.3 1.1.3 1.7.8-.7 1-1.8.8-3l.2-.3-.1-.8h-.2v-.1a2 2 0 0 0-.6-.2h-.2l-.9-.3c-.2-.1-.5-.2-.6-.4-.1-.3 0-.5.1-.7h.5c.2 0 .3.2.4.4 0 0 0 .2.3.3h.1a.3.3 0 0 0 .2.1c.2 0 .4 0 .5-.2h.2l.5-.3h.1a8.3 8.3 0 0 1 1.7-.2h.3l.8-.1c1.6-.1 3.4-.2 5-.9a4.8 4.8 0 0 0 2.9-4c-.5.6-1.1 1.2-2.5 1.7l-.1-.8a3 3 0 0 0-.4-.8c-.2-.4-.5-.9-.5-1.4-.2-3.3 1.1-5.8 3.6-6zm-73 .6a1.2 1.2 0 0 0 1.3 1l.1.2.1 1.1c-.1.1-.3.3-.3.5-.2 0-.5-.1-.7-.3 0 .1.1.5-.1.6l.3.8-.5-.3c-.1 0-.3 0-.4-.2 0 .3-.3.6-.7.5.3.2.4.7.1.8.2 0 .4 0 .4.2h.7c-.2.3-.6.4-.8.5 0 .2-.3.4-.4.5.4 0 .8.1.7.5.2-.1.5-.4.7-.3L43 93.6l2.2-.2-.8.2c.4.2.2.6-.1.9h.6c.2 0 .6-.3.8-.2l-.3.5c0 .1 0 .3-.2.4.3 0 .5.2.5.5l-1.2-.4-.8-.3-.8-.3-1.1-.3H41.5l-1.1-.1-.4-.2v-.4c.2 0 .6 0 .5-.5l.2-.1c.4-.2.8-.4 1.2-.9V92l.3-.6V91h.1l.3-.3h.1c.4-.5.6-.9.5-1.7a9.6 9.6 0 0 0 .3-.3c.4-.5.6-1 .3-1.8V86.6h.1l.2-.4zm61.6 0 .1.1.2.4.1.1v.2c-.4 1 0 1.5.4 2h.1l.1.1c-.1.8.1 1.2.5 1.6v.1h.1l.2.3h.1l.1.4v.1l.2.5.1.1c.3.5.8.7 1.2.9h.2c0 .6.3.6.5.6v.4l-.4.2h-1.3l-.1.1-1.1.3-.9.3-.7.3-1.2.4c0-.4.3-.7.5-.6-.1-.1-.2-.3-.1-.4-.2 0-.4-.4-.4-.5.3 0 .6.2.8.3.1-.2.5-.2.7-.1-.3-.3-.5-.7-.1-.9-.3 0-.7 0-.8-.3l2.1.3-1.7-1.3c.3 0 .6.1.8.3-.2-.4.2-.5.6-.5-.1-.1-.4-.3-.3-.6-.2 0-.6 0-.8-.3 0-.1.5-.2.6-.1l.4-.2c-.3-.1-.2-.6.2-.8-.4 0-.8-.2-.7-.5l-.4.2-.5.3.3-.8c-.3-.1-.2-.5-.2-.6-.3.2-.6.5-.8 0v.1l-.2-.1.2-1.3h.1c.6 0 1.2-.5 1.2-1.1zm-5.7 7.1c.1.3-.2.7-.2.8.2.2.1.5 0 .7l.6-.3.3.3v.1l-.6 1c-.3 0-.6 0-1 .3l-.2-.4.3-.1-.4-.1v-.4l.1-.8.2-.2a1.1 1.1 0 0 0 .3-.4v-.1h.2l.4-.4zm-50.2.1.5.4h.1v.1l.5.5c.1.3.2.5.1.8v.4h-.4l.3.2-.3.4c-.3-.2-.6-.3-1-.2l-.6-1.1a1.2 1.2 0 0 0 .3-.3l.7.3v-.6l-.2-.9zm53.4 1.2v.6c.2 0 .2.3.3.4 0-.2.4-.2.7.1l-1.2.4-2 .6a1.2 1.2 0 0 0-.4-.5l.1-.2.7-.8.6-.1c.2.1.2.4.2.7.1-.2.4-.5.6-.4 0-.2.1-.6.4-.8zm-56.5.1.4.8c.2 0 .4.2.5.4 0-.4.1-.8.5-.7h.2l.8 1V96v.2c-.2.1-.3.3-.3.4l-2-.5-1-.5c.2-.2.5-.2.6 0 0-.1 0-.3.2-.4v-.6zm3.2 1.6c.2 0 .4 0 .5.2l-1.3.3.2-.2h.4c.1 0 .2-.2.1-.3h.1zm4.6 1.6h.2l.5.2c.1 0 .1 0 0 0l.8-.1.9.3.3 1 .2.7c-.2 0-.4-.2-.3 0 0 .5.2 1 .5 1.1h-1l-.2-.5.4-.3c-.5 0-.7-1-.3-1.6l-.8.2v-.1l-.3-.2H55v-.3c-.2.3-.5.6-.7.6v.2h-.8v-.7l.4-.1-.1.6h.3a2 2 0 0 1 0-.7l.4-.3zm40.8 0 .5.3-.1.7h.3v-.6l.3.1v.8a7 7 0 0 1-.7 0v-.3c-.3 0-.6-.3-.7-.6l-.1.3h-.4l-.2.2c-.4.1-.7 0-1-.1.5.6.3 1.5-.2 1.6l.4.3-.2.5h-1c.3-.1.4-.6.5-1.1.1-.2 0 0-.3 0l.2-.7.3-1c.3 0 .6-.3 1-.3h.6v.1c.3 0 .5 0 .7-.2zm-47.6 1.7.2.2v.5l-.5-.1v-.2s0-.2.3-.4zm54.4 0 .4.4a3.7 3.7 0 0 0-.1.2l-.4.1v-.5l.1-.2zm-51.4 1c0 .2.2.4.4.5h-.8l.4-.5zm48.4 0 .4.5h-.8l.5-.4-.1-.1zm-48.3.7h.4l.1.2c0 .4-.6.4-.3.4.5.4 1.1.7 1.5.6-.3.4-.7.9-1.2 1 0 .3 0 .3.3.4.2-.5.7-.9 1-1.2 0 .4.3 1 .7 1.5 0 .3 0-.4.3-.3l.3.1v1c-.2-.4-.7-.5-1.2-.6-.2-.2 0 0 0 .2l-.7-.1-1-.3-.3-1-.2-.7c.2 0 .4.2.3 0 0-.5-.2-1-.5-1.2h.5zm6.2 0h.6l-.4.7-.3-.3h-.2v-.4h.3zm35.7 0h.4v.4H93l-.3.3-.4-.7h.5zm6.1 0h.7c-.3.2-.4.7-.5 1.2-.1.2 0 0 .3 0l-.2.7-.3 1-1 .3-.7.1c0-.1.2-.4 0-.2-.5 0-1 .2-1.2.5v-.9l.3-.1c.3 0 .3.6.3.3.4-.5.7-1.1.6-1.5.4.3.9.7 1 1.2.3 0 .4 0 .4-.3-.5-.2-.9-.7-1.2-1.1.4 0 1-.2 1.5-.6.3 0-.3 0-.3-.4l.1-.2h.2zm-4.3.1v.2a1 1 0 0 1-.4.1l.4-.3zm-39.1 0 .3.3a1 1 0 0 1-.5-.1l.2-.2zm37.1 1.5c.3.2.4.5.2.8l-.1-.5v-.3zm-35.2 0v.3l-.2.5c-.2-.3 0-.6.2-.8zm-1.2.8 1 .1-.2.4-1 .3h-.4c-.1-.2-.2-.5 0-.6 0-.2.3-.2.6-.2zm37.6 0c.3 0 .5 0 .7.2.2.1 0 .4 0 .7l-.5-.1-1-.3-.1-.4.9-.1zM54 104l.5.5c0-.1.2-.2.3-.1-.3 0-.6.2-.8.4v-.8zm41.8 0v.8l-.8-.4h.3l.5-.4zm-37.5.4a.9.9 0 0 1 .6.9h-.3v.5a.9.9 0 0 1-1.4-.4l.4-.3.3-.3.4-.4zm-3.1.1zm39.4 0zm-37.8 1 .3.6a1.2 1.2 0 0 0 1.9-.2l.2.1.8.7v.6c0 .2-.3.2-.6.2.2.1.5.4.4.6.2 0 .6.1.8.4H60c0 .2-.3.2-.4.2.1.1.1.3 0 .4l-5.4-.3c.2-.3.6-.5.8-.3l.1-.7-.2-.6h.5l.5.6c.3-.2.8 0 1 .2-.2-.6-.3-1.3.4-1.3-.4-.2-1-.6-1-1l.5-.1zm36.2 0v.1l.5.1c0 .4-.6.8-1 1 .7 0 .6.7.3 1.3.3-.1.8-.4 1.1-.2l.5-.6h.5l-.2.6c.2.2.1.5 0 .7.3-.2.6 0 .9.3-2 0-3.7.2-5.4.3l.1-.4c-.1 0-.3 0-.3-.2h-.7c.2-.3.6-.4.8-.5 0-.2.2-.4.4-.5-.4 0-.8-.1-.7-.5v-.2l1-.8h-.1.2a1.2 1.2 0 0 0 2-.4zm-18.1.1 1 .5.5.4c0 .2-.4.2-.2.2.4.3.9.5 1.2.4l-1 1 .3.2c.2-.4.6-.7.9-1 0 .2 0 .5.2.8l-.5-.1c-.3.3-.7 1-1.3 1.1 0-.1.1-1 .3-1.1-.2-.2-.1-.6 0-1-.4.4-1.2 0-1.4-.8-.2.8-1 1.2-1.3.9l-.1.9c.2.2.4 1 .3 1.1-.6 0-1-.8-1.3-1.1H72c.2-.2.3-.5.2-.7.3.3.7.6.9 1 .2 0 .2 0 .3-.3-.4-.2-.7-.5-1-.9.3.1.8-.1 1.2-.4.2 0-.1 0-.2-.2l.6-.4.9-.5zm-14 .5c.1 0 .3 0 .4.2h-.7c.1-.2.2-.2.3-.2zm-.5 1 .4.3-.3-.1-.1-.3zm23.3 1.2-.5.4v-.3l.5-.1zm-17.5 0 .3.1v.2l-.3-.3zm5.2.3c0 .4 0 .6-.4.7l.2-.4.2-.3zm7 0 .2.3.2.4c-.3 0-.4-.3-.4-.7zm-9.2.3.4.1v1.6h-.4a.9.9 0 0 1-.9-.8c.1 0 .3-.1.3-.3v-.3c0-.1.3-.3.6-.3zm11.4 0c.3 0 .5.2.7.3-.1.1-.2.2-.1.3 0 .2.2.3.3.2v.1a.9.9 0 0 1-1.3.8V109h.4zm3.6.5-.3.1h-.3zm-18.4 0h.4l-.3.1H66zm5.1 0c.5.3 1.1.8 1 1.3.1.2-.2.3-.4.4l-.3-.4-.5-.9.2-.3zm8 0c0 .2 0 .3.2.4l-.5 1-.3.3c-.2-.1-.5-.2-.5-.4 0-.5.6-1 1-1.2zm4.2 0 .5.4v.3c-1.4.4-2.3.8-2.5 1.3-.4.1-1 .3-1.3 0l.3-.5.5.1a1.2 1.2 0 0 0 1.2-1.4h.2zm-16.5.1 1.3.2v.1a1.2 1.2 0 0 0 1.8 1.1l.3.5c-.3.3-1 .1-1.4 0 .3.3.2.6-.2.9v-.7c0-.5-.7-1-2-1.4-.1-.2-.2-.4.1-.5l.1-.2zm-43.2.7zm103 0h-.1zm-80.5.9a11.5 11.5 0 0 1 .2 1h-.3l-.2-.5c-.1-.2-.3-.2-.6-.2H44.2v1.7h.6l.5-.1.1-.4h.2v.3a10 10 0 0 0 0 1h-.2v-.4l-.6-.1h-.6V115.4h1.2c.3 0 .5 0 .6-.2l.3-.7h.2a9.5 9.5 0 0 1-.2 1.2 88.8 88.8 0 0 0-3.3-.2l.5-.1.1-.5V112c0-.3 0-.5-.2-.6H43v-.2l3-.1zm.9 0a31.1 31.1 0 0 0 1.8.1v.1l-.6.1-.1.6v2.4a1.1 1.1 0 0 0 .7.9l.4.1c.6 0 1-.2 1.1-.6.2-.3.3-.7.2-1.1v-2.2l-.6-.2v-.2a25.5 25.5 0 0 0 1.6.1v.2h-.5v.6l-.1 1.6c0 .6-.1 1.1-.4 1.5-.2.4-.7.6-1.4.6a2 2 0 0 1-.7-.2c-.3 0-.5-.2-.6-.5-.2-.2-.3-.6-.3-1v-2l-.1-.6-.4-.1v-.2zm57.8 0a10.1 10.1 0 0 1 .2 1h-.2c0-.2-.2-.4-.3-.5l-.5-.2H103v1.7h.5l.6-.1v-.4H104.5v1.2h-.2l-.1-.3-.6-.2h-.6v1.9l.3.1h.9c.3 0 .5 0 .6-.2.2-.2.3-.4.3-.7h.3a9.6 9.6 0 0 1-.3 1.2 15.4 15.4 0 0 0-.9 0h-2.4v-.2l.5-.1.1-.6V112l-.1-.5h-.5V111.1h2.7a2.4 2.4 0 0 0 .3 0zm-5.2 0h.5a1.2 1.2 0 0 1 1 1.2c0 .3-.2.6-.4.8l-.6.4 1 1.4.2.4.4.1v.2H101.3l-.5-.1-.4-.4-.8-1.2c0-.1 0-.2-.2-.2h-.6v1.1c0 .3 0 .4.2.5l.5.1V115.8h-.9a25.3 25.3 0 0 0-1-.1v-.1c.3 0 .4 0 .5-.2.1 0 .2-.2.1-.5v-2.8l-.1-.5-.5-.1v-.2h.9a7.2 7.2 0 0 0 .8-.1h.2zm-56.8 0v.2l-.4.2-.1.6v3.6H42l-.2-.1-2.5-3-.2-.3v2.5l.1.6.5.1v.2h-1.5v-.2l.4-.1.1-.6V112l-.2-.3a.6.6 0 0 0-.4-.1V111.3h1l2.4 3 .2.3.1.1s.1-.1 0-.2v-2.3l-.1-.6-.5-.1v-.2h1.5zm64.8 0h1l2.2 3.2.3.3v.1h.1v-.2l.1-2.3-.1-.6-.5-.1v-.2h.4a15.6 15.6 0 0 0 .8 0h.4v.2l-.5.1-.2.6v3.4l-.1.2H111l-.1-.2-2.3-3.1-.3-.2v.3l-.1 2.1v.6l.6.2v.2h-.4a15.8 15.8 0 0 0-.8 0h-.4v-.2c.3 0 .4-.1.5-.2l.1-.6.1-2.9-.1-.3-.4-.1v-.2zm-55.9 0h.9a7.9 7.9 0 0 0 1 0l.6.1a1.2 1.2 0 0 1 .8 1.2c0 .4-.1.7-.3.9l-.6.3.8 1.5.3.4.3.2v.1h-.2c-.3 0-.4 0-.6-.2l-.3-.4-.7-1.2-.3-.2-.5-.1V115.5l.5.1v.2H51.5v-.2c.2 0 .4 0 .5-.2l.1-.5.1-2.8v-.5l-.6-.1V111.2zm45.7 0v.2l-.5.2v4.2h-.4l-2.5-3-.3-.3v2.5l.2.6h.5V116a86.4 86.4 0 0 1-.8 0h-.7v-.1l.4-.2.1-.6-.1-2.9s0-.2-.2-.3a.6.6 0 0 0-.4-.1v-.2h1l2.5 3 .2.2h.1v-2.5c0-.3 0-.5-.2-.5l-.5-.1v-.2a86.4 86.4 0 0 1 1.2-.1h.4zm-59.5.2v.2c-.3 0-.4 0-.5.2l-.1.5.2 3.4v.2H37l-2.6-3-.3-.2v2.4l.2.6.5.1V116.1h-1.5v-.2c.2 0 .4 0 .5-.2v-.5l-.1-3-.2-.2a.6.6 0 0 0-.4-.2v-.2h1l2.5 3 .2.2h.2v-.1l-.1-2.4c0-.3-.1-.4-.2-.5l-.5-.1V111.4h1.6zm33.9 0zm6.6 0zm21.1 0c-.3 0-.4 0-.5.2l-.1.3v1.6h.3l.9-.2c.2-.2.3-.5.3-1 0-.3-.1-.6-.3-.7a1 1 0 0 0-.6-.2zm15.2 0h.1c.7 0 1.2.3 1.6.8.4.4.6 1 .6 1.7-.1.7-.3 1.2-.7 1.6-.5.4-1 .6-1.7.6-.6 0-1.1-.3-1.5-.7-.4-.4-.6-1-.5-1.7 0-.7.3-1.2.7-1.7a2 2 0 0 1 1.4-.6zm-61.2.1-.5.1v.3l-.1 1.6h.3l.8-.1c.3-.2.4-.5.4-.9s0-.6-.3-.8a1 1 0 0 0-.6-.2zm4.3 0h.4l.5.1h.9v.2c-.3 0-.4.1-.5.2-.1 0-.2.2-.2.5l-.2 3v.3h.3l.7.1c.3 0 .5 0 .6-.2.2-.1.3-.4.4-.6h.2a15.3 15.3 0 0 1-.3 1.2 76.6 76.6 0 0 0-3.2-.5h.5l.2-.6.2-2.8v-.5l-.5-.2v-.2zm33.8 0a9.7 9.7 0 0 1 .3 1l-.2.1-.3-.5c-.1-.2-.3-.2-.6-.2H90l-.2.2v.2l.1 1.4h.6l.6-.2v-.4H91.4a121.4 121.4 0 0 0 0 .9v.3h-.2l-.1-.3-.5-.1h-.7l.2 1.7v.2l.2.1h1l.6-.4.2-.7h.3a9.8 9.8 0 0 1-.2 1.2H92l-.6.1-1.5.1h-.3a111.6 111.6 0 0 0-.6-.1c.2 0 .4 0 .5-.2v-.5l-.2-2.8-.1-.5h-.5V111.7h.8l1.8-.2a2.3 2.3 0 0 0 .3 0zm-19.4 0c.1.2.2.2.1.4h.7l-.6.5c0-.2 0-.5-.2-.8zm5.8 0c-.2.4-.3.7-.2 1l-.6-.6h.7v-.3zm3.3.1v.5-.5zm33.3 0c-.3 0-.6.2-.8.5-.3.3-.5.8-.6 1.6 0 .6.2 1.2.5 1.5.3.4.6.6 1 .7.5 0 .8-.2 1-.5.4-.3.5-.8.6-1.5 0-.7-.1-1.2-.4-1.6a1.5 1.5 0 0 0-1.3-.6zm3 0 .4.1a22.2 22.2 0 0 0 1 .1h.3v.3h-.5v.2l-.2 1.4h.5c.3.1.6 0 .8 0 .1-.1.3-.3.3-.6 0-.4 0-.6-.2-.8l-.3-.2.1-.2.8.4a1 1 0 0 1 0 1.3l-.6.3c.3.1.6.3.7.5.2.2.3.5.3.8 0 .3-.2.6-.5.9-.2.2-.7.3-1.4.3a23 23 0 0 1-1.5-.2h-.4v-.2l.5-.1c.1 0 .2-.2.2-.5l.2-2.8v-.5l-.5-.2v-.2zm-86.7.2c.4 0 .8.2 1.1.5.5.3.8.9.8 1.6 0 .7 0 1.2-.4 1.7s-.9.7-1.6.8c-.6 0-1-.1-1.5-.5-.5-.3-.7-.8-.8-1.5 0-.7 0-1.3.4-1.8a2 2 0 0 1 1.4-.8l.1.2c-.4 0-.7.2-1 .6-.2.3-.3.9-.3 1.6.1.7.3 1.2.7 1.5.3.3.7.5 1.2.5.4 0 .7-.3 1-.7l.2-1.5c-.1-.7-.3-1.2-.6-1.5l-.7-.4v-.3zm44 0c0 .6.2 1.2 0 1.7.2.1.2 0 .4 0-.2-.5-.1-1.1 0-1.7.1.4.8.6 1.4.7.2.2-.2-.3 0-.5h.3l.6.6c-.3 0-.8.1-1.2.4-.2 0 .1 0 .2.2l-.6.4-.9.5-1-.5a19 19 0 0 0-.5-.4c0-.2.4-.1.2-.2-.4-.3-.9-.5-1.2-.4l.6-.7h.3c.2.3-.2.8 0 .6.6-.1 1.3-.3 1.5-.7zm-13.2 0h.2v.3h-.3v-.2zm.5.1h.4l1.7.3a2.2 2.2 0 0 0 .4 0v1.1h-.2l-.2-.6-.5-.3H62.8l-.1.2-.2 1.4h1.1c.1 0 .2-.1.2-.3h.2v.6l-.1.3v.3h-.2l-.1-.4-.5-.2h-.7l-.2 1.6v.2l.2.1 1 .2c.2 0 .4 0 .6-.2l.4-.6h.2l-.4 1.2a90 90 0 0 0-3.2-.7h.4l.2-.6.4-2.7v-.6zm24.2.1h.6c.2.1.4.2.6.1a13.2 13.2 0 0 0 .3 1l-.2.2c-.2-.3-.3-.6-.6-.8-.3-.2-.6-.2-1.1-.2-.5.1-.9.4-1.1.8-.3.4-.3 1-.3 1.5 0 .3.2.6.4 1 .2.2.4.5.8.6.3.2.6.3 1 .2.2 0 .4 0 .6-.2.2 0 .3-.2.4-.3l-.2-1c0-.1 0-.2-.2-.2H87V114.3h.4l.4-.1h.4l.2-.1c.1.1 0 .2 0 .2l-.1.1v1.1l.2.1-.7.6-1 .4c-.8 0-1.4 0-1.9-.4s-.8-.8-.9-1.4c0-.5 0-1 .2-1.4l.7-1a2.5 2.5 0 0 1 1.5-.5zm-59.5.2h.1l.3.2-.2.1v.5l.4 2.8c0 .3.1.4.2.5h.5V116.6a34.8 34.8 0 0 0-1.8.1v-.1c.2 0 .4 0 .5-.2v-.5l-.2-1.4h-.3v-.2h.3l-.2-1.1c.1-.3.2-.3 0-.6v-.1l-.3-.2H26h.6l.2-.1zm96.3 0h.4V112.6h-.5l-.2.6-.4 3v.2l.3.2h.8l.6-.1.2-.3.2.3-.1.6h-.2l-.4-.1h-.3l-1.4-.2h-.4l-.5-.2v-.2h.5l.2-.5.3-2.8v-.4a1 1 0 0 0 .3 0 1.3 1.3 0 0 0 .4-.2l.2-.2zm-54.6.6c.2.1.4.3.4.5h.8l.3.3-.6.2c0 .2-.2.4-.4.6.4 0 .6.7.2 1.3.6-.4 1.3-.2 1.3.2.2-.2.4-.5.6-.4 0-.2 0-.4.2-.6l.4.3v.8c.3 0 .5.6.5.9.3-.6.7-1.2 1.2-.7-.1-.4-.3-1 0-1.4a7.7 7.7 0 0 1 .5.3 1.2 1.2 0 0 0 .8 1.7v.2a75.8 75.8 0 0 1-6-.4v.2h-.2zm59 .2.8.1H128.6a13.8 13.8 0 0 1 0 1.1h-.2c0-.3 0-.5-.2-.6 0-.2-.2-.3-.4-.3h-.1v-.1l-.1-.2zm-46.3 0v3.7c-1.5.2-3.4.2-6 .3v-.2a1.2 1.2 0 0 0 1-1.7l.4-.3c.3.3.1 1 0 1.4.5-.5.9.1 1.1.7.1-.3.3-.9.6-.9v-.8l.4-.3.2.6c.2 0 .4.2.6.4 0-.4.7-.6 1.3-.2-.4-.6-.2-1.3.2-1.3-.2-.2-.5-.4-.4-.6-.2 0-.4 0-.6-.2.1-.1.3-.2.3-.4h.8v-.1zm37.3 1-.1 1.6v.3c.1.1.2.2.5.2.5 0 .8 0 1-.2.2-.1.3-.3.3-.6s0-.6-.2-.8c-.2-.3-.6-.4-1-.5zm-93.5.5v.2l-.7.2.2 1.3c0 .3 0 .5.2.5h.5V117a38.8 38.8 0 0 0-1.8.2v-.2l.4-.1v-.6l-.1-1.5a2.3 2.3 0 0 0 1-.2h.3zm103 0v.4a11 11 0 0 0-.2.6v.3h-.2v-.4l-.6-.3h-.6l-.4 1.6v.2l.2.1 1 .2.6-.1.4-.6h.3a9.5 9.5 0 0 1-.5 1.2 42.8 42.8 0 0 0-.9-.2l-1.5-.3-.3-.1-.5-.1v-.2h.5l.2-.5.3-1.5h1.3l.5.1.2-.4h.1zm-53.8.7h.6v.1h1v.6c0 .3-.3.5-.5.6 0-.2-.2-.3-.3-.3l-.3.3a.9.9 0 0 1-.5-1.3zm-28.4 3.2 6.7.1c0 .4-.2.9-.6 1 0 .4.4 1.2.1 1.7-.2 0-.6-.7-.7-1-.2 0-.5-.2-.7-.5 0 .6-.8.9-1.5.5.5.6.4 1.5-.2 1.6.3.1.7.3.7.6.3 0 1 .3 1 .5-.4.3-1.2.2-1.6.3 0 .4-.7.7-1 .8.8.2 1.5.7 1 1.4.5-.3 1.4-.6 1.7-.2.1 0 .2.2.1.3a15 15 0 0 1-3.7 0v-.2c-.3-.2-.7-.8-1-1.2.4.2 1 0 1.6-.3.3 0-.4 0-.3-.5l.8-.7c-.3-.3.4-1 .4-1-.2 0-.8.3-1 0-.3-.4 0-1.2.2-1.7-.6.5-1-.3-1.3-1-.1.3-.4 1-.9 1 0 .4.1 1.2-.3 1.6-.1 0-.5-.8-.4-1-.3 0-.5-.4-.6-.7-.1.5-1 .6-1.6.1.3.7 0 1.6-.5 1.5.3.2.5.5.5.8.2 0 .9.5 1 .7-.6.2-1.4-.1-1.8-.1 0 .4-.8.5-1.2.6.3.1.6.3.8.6a6 6 0 0 0-2 0v-.3c-.5.2-1.1 0-1.6 0 .3-.2.6-.8.8-1.4.2-.2-.3.2-.5 0V121c-.5 0-.5-.9-.5-1-.2.3-.3.8-.6.8-.6 0-1-.8-1.2-1.3 0 .8-1 .6-1.6.3.1.3.4 1 .1 1.3.3.3 1 .8 1 1.3-.1.1-.9-.2-1-.4-.3.2-.6.1-1 0 .4.4-.2 1.2-1 1.3.8.2 1.2 1 .8 1.4.3-.1.7 0 .9.1.2-.2 1-.3 1.2-.2-.2.5-1 .9-1.3 1.2.2.2.1.4 0 .7l-.1-.6c-.3.7-1.2 1-1.5.6 0 .3 0 .7-.2.8v1.2c-.5-.2-.8-1-1-1.3-.4.2-1-.3-1.2-.5.1.6.1 1.2-.3 1.4l-.2-.9h.2c.3 0-.3-.1-.2-.5l.8-.8c-.3-.3.4-.9.4-1-.2 0-.8.3-1 0-.3-.3 0-1.1.2-1.7-.6.5-1-.2-1.3-1 0 .3-.3.8-.7 1h-.1v.2c-.2.3-.5.6-.8.6v-.3c-.3 0-.5-.3-.6-.6 0 .5-1 .6-1.6 0 .1.4.2.7.1 1l-.9-.6c.2.6 0 1.2-.4 1.4v-5c5.2-1 13.8-1.6 22.2-1.6zm56.7 0c8.7 0 18.1.5 23.6 1.6v7a6.9 6.9 0 0 0-.8 0h-.2l-.1-.6c-.3-.9-.5-1.6-1.2-1.8-.2 0-.4.3-.3.5v.1a1 1 0 0 0-.6-.2c-.2 0-.3.4 0 .6l.4.5a1 1 0 0 0-.7-.3c-.2 0-.4.3-.2.5v.2h.1a1 1 0 0 0-.4 0c-.2-.1-.3.2-.2.4.4.6.8 1 1 1.7l.4.4v.2h-.2v.1l-.3.4-1 .6-.3-.7s-.1 1-.5 1v.2l-1.7 1.1c1-1.4 1.7-3 1.8-4.5-.1-.4.7-.9.8-1-.2 0-.6.1-.8 0 0-.3 0-.6-.2-.9l.6-.9c-.8.4-1-.5-1-1.2-.3.2-.7.8-1.1.7-.2.4-.3 1.3-.7 1.6-.2-.1-.3-1-.2-1.2-.3 0-.4-.4-.5-.8-.2.5-1 .4-1.5-.2.1.8-.4 1.5-.9 1.3.2.3.4.6.3.9.3 0 .8.7.8.9-.6.1-1.3-.4-1.6-.5h-.1v-.3c-.2-.3-1-.7-1.2-1.2.2-.1 1 0 1.2.2.2-.2.6-.2.9-.1-.4-.4 0-1.2.8-1.4-.8-.1-1.4-.9-1-1.3-.3.1-.7.2-.9 0-.2.2-1 .5-1.1.4 0-.5.8-1 1-1.3-.3-.4 0-1 .2-1.3-.7.3-1.6.5-1.7-.3-.2.5-.6 1.3-1.1 1.3-.4 0-.5-.6-.7-.8 0 0 0 1-.4 1v1.1c-.3.3-.7-.1-.5.1.1.6.4 1.2.7 1.4h-1.6c-.6 0-1-.1-.9-.7-.3.5-1 1.1-1.5 1-.3 0-.3-.7-.3-1 0 .1-.2.6-.5.8-.3 0-.7-.2-.7-.5-.4 0-1.2.3-1.7 0 0-.2.7-.7 1-.7 0-.2.2-.5.5-.7-.6 0-.8-.8-.4-1.5-.7.4-1.6.3-1.6-.2-.2.3-.4.6-.7.6 0 .3-.3 1-.5 1-.3-.4-.1-1.2-.2-1.6-.5 0-.7-.7-.8-1-.3.7-.7 1.4-1.4.9.2.5.5 1.3.1 1.7-.2.3-.7 0-1-.1 0 0 .7.8.4 1l.8.9c0 .3-.6.3-.3.4.5.3 1.1.5 1.5.4-.3.4-.7.9-1.1 1.1v.2c-1.3 0-2.6-.3-3.9-.6.1 0 .2-.1.2-.3l-.1-.5.1.1h.4c.2.2.4 0 .4-.1v-.2c.2.2.6 0 .6-.1V123.3c0-.7-.8-1-1.7-1.3H96v-.6c0-1 0-1.7-.6-2-.2-.2-.4 0-.4.3v.1a1 1 0 0 0-.5-.4c-.2 0-.4.2-.3.5l.3.6a1 1 0 0 0-.6-.5c-.2-.1-.4.2-.3.5v.2a1 1 0 0 0-.3-.2c-.2-.2-.4.1-.4.4l.5 2c-.5.3-1 .7-1.5.4-.3 0-.1-.7-.2-1 0 .1-.5 1-.8.8l-.4.7-3.2-.5c-.3-.2-.6-.5-.6-.8-.4-.1-1.2-.1-1.6-.5a2 2 0 0 1 1.2-.4c0-.2.3-.4.7-.5-.5-.1-.5-1 0-1.6a115.8 115.8 0 0 1 15.3-1.1zm-49.8.1a135.6 135.6 0 0 1 4.5.4c.2.2.4.4.4.6H57.3c.2-.2 0-.5-.2-.5a1 1 0 0 0-.3.1h-.3c-.6.1-.8.8-1 1.6v.5H55c-.1-.2.2-.7.2-.8-.2.1-.7.5-.9.3-.4-.3-.4-1.2-.2-1.7-.5.6-1 .1-1.4-.5zm7.4.5h.4c0 .1 0 .2-.2.3l-.2-.3zm2.4.2 2 .3v2l-.8.4.8.4v.8a54.3 54.3 0 0 0-2.7.2c-.4-.3-.7-.9-1-1.3.4.2 1 0 1.6-.2.3 0-.3-.1-.2-.5l.8-.7c-.2-.3.5-.9.6-1-.3 0-.8.3-1 0l-.1-.4zm-4.7.6c.2 0 .4.3.5.5h-.1a1 1 0 0 0-.5.1v-.1c.1-.1 0-.3 0-.4v-.1zm.6.6v.1-.1zm2.3 1.7c.2.4.6.9.7 1.4a77.6 77.6 0 0 0-3.5.4l-.3-.3c.3-.2.8-.4 1 0 .2-.3.6-.4.9-.5.4 0 .2.6.3.4.5-.5.9-1 .9-1.4zm-3 .5v.1c.2.2 0 .5-.2.7l-.2-.2c.2 0 .3-.2.3-.3l.1-.3zm36 .7zm-36.5 0a14.8 14.8 0 0 0 .3.3l.2.4-2.2.5v-.1l-.8.2v-.2c-.5-.1-.9-.6-1.3-.9h.5c-.1.2.2.4.5.3h.1l.1-.1-.2.4c0 .1.2.4.5.2l1.9-.7.4-.2zm-4 .4c.5.3 1 .6 1.2 1l-.6.2-.2-.1.1.1-.8.2c.3-.5.5-1 .4-1.4zm58 .1a1 1 0 0 0-.2.3 5 5 0 0 0-1-.2h1.3zm-72.9.2h.9l-.5.2-.4-.2zm25.1 0c-1.7.7-3.3 1.7-4.4 2.8l-.2-.1-1.4.7c.2-.3.1-1 0-1.6 0-.3-.1.3-.5.2l-.5-1c2.1-.4 4.6-.8 7-1zm23.2 0c1 0 2.2.2 3.2.4 0 .4 0 .8.2 1-.5-.2-1.1-.4-1.5-.7l-.1.1-.6-.3.1-.1h-.3a14 14 0 0 0-1-.4zm8 0 .8.7-1.1-.3.3-.4zm-48.7.3c.3.3.7.7.9 1.2l-1.2-.3c.2-.3.4-.7.3-1zm60.1.1-.1.3.1-.3zm-4.4 0c0 .4.1.8.4 1.2h-1.3l.9-1.2zm-61 .2h.2l-.2.3h-.1l-.3.2-.4-.3h-.2l1-.2zm69 0h.6v.2l.2.4.2.3-.4.3v.2c-.3 0-.5 0-.6-.2-.3.1-1 .2-1.2 0 .2-.5 1-.7 1.3-1v-.2zm-68.6 0 .6.1-.2.2.6-.1c.4 0 .7.2 1.1.3v.3l-.6-.4c.4.7-.4 1-1.2 1.2.3.1 1 .5.9 1 .4 0 1.2 0 1.6.4-.1.2-.9.4-1.2.4 0 .2-.3.4-.7.5.4.1.5.6.3 1.1-.3-.2-.6-.6-.7-1 0 1-.9.8-1.6.6.1-.1.2-.3 0-.5l-.3-.6.7.5c.1 0 .4-.2.2-.5v-.2l.3.1c.2.2.5-.1.4-.4-.3-.6-.6-1.2-.6-2l-.3-.4h.2l.1-.1v-.1l.4-.3zm69.3.1.5.1-.1.5-.1-.2c-.2-.1-.2-.2-.3-.4zm-57.8.3c.2 0 .2 0 .3.2l-.8.1c.2-.1.3-.3.5-.3zm41 0a124.3 124.3 0 0 1 3.4 1v.2l1 1.3c-.4-.2-1 0-1.6.3-.2 0 0 0 .1.1-.2.2-.5.6-.7.4l-.7.8c-.4.1-.5-.5-.5-.2-.2.6-.3 1.2-.1 1.6-.5-.3-1-.5-1.4-1l-.1.2c-.3-.6-.6-1.3-1-1.8l-.1-.2v-.1c.2 0 .8.4 1 .7.2-.1.5 0 .8.3-.2-.5.5-1 1.3-.9-.6-.4-.8-1.4-.3-1.6-.3 0-.7-.1-.7-.4-.3.1-1.1 0-1.2-.2.1-.2.5-.4.8-.5zm17.5.2h.2c-.2 0-.4.2-.5.3v-.1l.3-.2zm-55.6 0-.1.1h-.5.6zm33.8.1.7.3h-.2c-.2 0-.4-.2-.5-.3zm-65.6.2v.3l.5.4-.5.4zm79 0zm2.8.2c0 .3.2.5.3.7l-1.3-.3 1-.4zm-1.4.4v.3h.5l1.2.2c-.3.1-.6.5-.8.9l-.1.1-.2.2v-.4c0-.2-.5-.2-.6 0-.3.6-.6 1.2-1.1 1.7-.2.1-.2.3-.2.5h-.2l-.2-.2-.5-.1-.4-.5.6.2c.1-.4.8-.5 1.2-.5-.7-.5-1.3-1.1-.6-1.6-.6 0-1.5.1-1.7-.3v-.2c1 0 2.1 0 3.1-.3zm-51.2 0c.2.3.4.5.3.8.4.1 1.2.2 1.6.7-.1.1-1 .3-1.2.2 0 .2-.4.3-.8.4.5.2.4 1-.1 1.4l-.5-.2c-.2-.3.3-.6 0-.5-.6 0-1.2 0-1.5.3.1-.5.2-1.1.5-1.5l-.2-.1 1.9-1.5zm44.5 0 .9.7-.2.5c-.2-.3-.6-.7-.7-1.1zm-50.8.1 1.2.2-1.2.8v-1zm4.8 0c-.8.6-1.4 1.3-2.1 2-.2-.1-.1 0-.1.2l-.3.3-1-.1c0 .1 0 .2-.2.2l-.1-.2c0-.4.7-.2.4-.3-.4-.5-1-.9-1.3-.9l1.4-.7v-.3l3.3-.1zm47.8.1zm-62.6.3a.5.5 0 0 1 .1 0c-.1.6 0 1.2.2 1.7-.4.1-.8.2-1 0-.3.1-.9.8-1.4.8 0-.2.3-1 .5-1.1-.2-.2 0-.6.1-.9-.2.2-.5 0-.7-.1.5 0 1 .1 1 .7.2-.5.7-1.1 1.2-1.1zm.9 0 .5.1.1.1v.5c0 1 .2 1.8.8 2 .2.2.5 0 .4-.3v-.1l.5.3h.2c.2.3.6.9.3 1.2.3.3 1 .7 1.2 1.3-.2 0-1-.1-1.2-.3l-.6.2.5-.9c-.8.4-1-.4-1.1-1.2l-.2.2c-1-.8-1.8-1.7-1.5-2.9v-.2zm35.7.1c.2.2.4.4.3.6.3 0 1 .4 1 .6-.2.2-.6.2-1 .1l.1-.2-.4-1zm-13 .1c.3.1.7.3.6.5 0 .6-.7 1-1.2 1.2.3 0 .4.2.5.4l-.4-.1h-.5v-.9c.2-.4.6-.7 1-1zm54.2.2v.1h-.2.2zm-55.6.1-.6.8-.6-.3 1.2-.5zm75.5 0c0 .6.2 1 .4 1.2-.5 0-1.1 0-1.6-.3v.3h-.3c-.1-.5.4-.8.9-1l.6-.1zm-105.3.4.2 1.2-.9-1 .1-.1h.6zm-.8.3c.3.4.7.8.8 1.2l.3-.1.4 1.2h-.3l.4.2 1 1.6-3.3-2 .2-.2a3 3 0 0 1-.7-1c.4 0 .3.7.4.4l.5-.7.5-.2c.3 0-.3 0-.2-.4zm86.2 0-.2.2c.5 0 1.4.2 1.6.7.1.2-.4.6-.5.8 0 0 1-.3 1 0 .4 0 .8-.2 1.1-.3.2.1.2.4.2.5-.5.3-1.2.3-1.3-.2 0 .3-.2.7-.5.7 0 .3-.2 1-.4 1.2-.4-.4-.3-1.3-.4-1.7-.5.1-.8-.5-1-.8-.1.7-.5 1.5-1.2 1 .3.6.7 1.4.4 1.8-.2.3-.7 0-1 0 0 .1.5.5.6.8-.5-.2-.9-.6-.7-1-.2.2-.6.3-.8.1-.2.3-.9.7-1 .6-.1-.5.5-1.1.7-1.5-.2-.2-.2-.6-.1-1 .5-.2.8-.9 1-1.6l.1-.2h.5l.2.1c-.2.6-.8 1.2-1.5 1.7 1 .1 2-.6 2.2-1.6.4 0 .8-.1 1-.3zm6 0v.4-.3zm-69.7 0-.2 1.4-.5-.6.7-.8zm-34.3.2c0 .1.3.2.5 0v.4h-.1l-.8.3.4-.7zm6 0H22h.2zm105.2 0zm-19.5 0c.2 0 .9.3 1 .5h.5v.2c-.2.2 0 .4.1.4h.2c-.2.2-.1.6 0 .6h.4c-.4.3-.8.2-1-.3 0 .3-.2.8-.5 1.1 0-.3-.1-.8.1-1-.2-.4-.8-1-.8-1.5zm-49.1.1v.7l-.4.2-.2.2v-.4c.3-.1.6 0 .4-.1l-.2-.2a6.7 6.7 0 0 1 .4-.4zm60 .3c.2.2.8.1 1.3 0a12 12 0 0 1-2.3 4.1h-.7c0-.2.6-.7.9-.8-.1-.3.1-.6.4-.8-.5.1-1-.6-.7-1.4.4-.3.8-.7.8-1l.6 1.5c.2 0 .3 0 .4-.2-.4-.4-.6-1-.8-1.4zm14.5 0 1.2.2c-.1 0-.2 0-.3.2a12 12 0 0 0-1-.4zm-96.5.2c.4.7 1.1 1.2 2 1.1-.3.3-.6.6-1 .6-.1.3-.1 1.2-.6 1.5-.1 0-.3-.9-.2-1.2-.2 0-.4-.3-.4-.5l.6-.2c-.7-.2-.7-.7-.4-1.3zm-16.2 0c.5 0 1 0 1.4.2l-1 1c0-.3-.1-.7-.4-1.2zm57.3 0 .1.4.2.9c-.5-.2-.9-.7-1.2-1 .3 0 .6 0 1-.2zm22.3.2zm-73.6 0c.2.3.4.6.4 1l-1-.6.6-.4zm35.7.1c0 .2-.1 1-.3 1.2l-.3-.2h-.2l.3-.3v-.4l.5-.3zM30 129l.2.7-.2-.6zm47 .1c.3.4.8.8 1 1.2l.3-.1v.5c-.3-.1-.4-.4-.6-.5 0 0 .3 1-.1 1l.2 1-.2.3h-.2v.2l-.8 1c-.5.5-1 .8-1.6 1.1-.5-.2-1-.6-1.4-1v-.4h.2v-.4h.5c.6-.3 1.3-.3 2-.4.1 0 .3-.1.3-.3.2 0 .3-.3.1-.4a1 1 0 0 0-.4-.3h.1c.2 0 .3-.1.3-.2.2-.1.3-.4.2-.5l-.2-.1c.3 0 .5-.3.3-.5l-.2-.2v-.2c.1-.3.2-.6.1-.8zm49.7 0c0 .4 0 .8.3 1l-.8-.2c.3 0 .5-.3.4-.4l-.1-.3h.2zm-3.2.1.3.2-.4.2v-.4zm-106.7 0c-.2.3-.6.5-1 .7.3 0 1 .3 1 .8.4 0 1.2-.2 1.7.2l-.8.4s-.2 0-.2-.2l-1.1.2c-.3-.2 0-.7-.2-.5-.5.3-1 .7-1.2 1-.1-.4-.4-1-.3-1.5h-.2l.2-.2 2-.8zm106.4.3v.2h-.2l.2-.2zm-16.9.1c.5.2.7.9.9 1.4 0-.3.2-.4.4-.5 0 .3 0 .8-.3.9l.1 1c-.2.4-.7 0-.5.2.3.6.6 1.1 1 1.3l-.5.1c-.5-.1-1.2-.3-1.3-.8-.1-.2.4-.5.6-.7h-.9c.1-.5-.1-1.1-.5-1.8v-.2l.4-.4.6-.5zm-61.4 0c.2.6-.2 1.3-.3 1.7.4.2.4.9.4 1.2.4-.4.9-.9 1.3-.7a35.1 35.1 0 0 1-.8.7c-.5.2-1 .2-1.6.2.3-.3.5-.9.6-1.5.2-.3-.2.2-.5 0a6 6 0 0 1-.1-.7h.2c0-.3.6-.9.8-.9zm57 0h.3v.2h.4v.7l-.7-.9zm-9.9 0v.1zm-38.9.3c.4 0 .7.4.7.7-.2-.1-.8-.4-.7-.7zm39.9.2c.4.1.8.4 1.2.7-.3 0-.7.3-1 .6v-.4c.2 0 .2-.4 0-.6H93v-.3zm-21.3 0 .6.2h-.6v-.2zm-9.6.2v.5h-.6c.2 0 .4-.2.5-.3l.1-.2zm-49 0h.1a5 5 0 0 0-.7 1c-.2-.4-.4-.6-.6-.7.4-.1.8-.3 1.3-.3zm1.1.1c.3.4.5 1 .6 1.5-.3-.2-1-.3-1.6-.2-.3-.1.3.2.1.5l-.6.3a4 4 0 0 1 1.5-2zm93.5 0c.3 0 .6.2 1 .4l-.4.2c-.3 0-.5-.3-.6-.5zm-45.4.5c.3 0 .5.2.7.4a3 3 0 0 1-.8 0h.1c.1-.1.1-.3 0-.4zm-31.3.3h.2v.3l-.2-.3zm-3.1 0 .8.5c-.1.1-.2.2-.4.1l-.4-.6zm4.8.2-.4 1.5-.9-1.1c.5 0 1-.1 1.3-.4zm.2 0c.2.4.7.8 1.3 1 .2.2-.2-.3.1-.5h.3c.2.2.7.8.7 1-.5.1-1.2-.4-1.6-.5-.2.3-.6.4-1 .4l.2-1.4zm102.3.1c.5 0 .7.4 1 .9l-.1.2c-.1-.3-.6-.6-1.2-.9l.3-.2zm-106.4.3 1.3.8-1.4.7c.2-.4.2-1 0-1.5zm64.4 0 .1.2-.1.4v-.6zm9.6 0v.3-.3zm32 .1-.1.2.1-.2zm-62.6.2 1 .7.4.2V133.2l-.2.5c-.5-.5-1-1.1-1.2-1.7zm64.8.2h.2l-.7.2.5-.2zm-16.6 0 .5 1c-.4-.1-.8 0-1.2-.2l.4-.3h-.4l.7-.5zm-17.4.2.2.1.1.2-.1.3-.2-.6zm-10.6.2zm-62 .1a83.3 83.3 0 0 1 .5.6c-.2-.1-.4 0-.4.1v.5h-.2c0-.2-.2-.2-.3-.2-.1-.2-.4-.1-.4 0v.2c-.3-.3-.5-.5-.8-.5.5-.2 1-.5 1.5-.5v-.2zm14.3 0h.6l-.3.4-.3-.3zm-.1 0c0 .1 0 .5-.2.5h-.1l-.4-.4h.7zm68.3.1.6.6c.1.4-.5.5-.2.4.6.3 1.2.4 1.6.2-.3.5-.6 1-1 1.3 0 .1-.2.2-.3 0l-.2.5a6.4 6.4 0 0 1-1.2.2c-.2-.2-.3-.5-.2-.7-.3-.2-1.1-.4-1.4-1h1.3c0-.2.4-.2.8-.2-.4-.2-.3-.8.2-1.3zm-66.7 0c-.1.5-.4.9-.6 1.3l-.1-.4.7-.8zm-13.5.1.4.7-.6-.6h.2zm59 .1v.2-.2zm1.3.1zm-1 0v.1H92zm-14 .1c.1.2.3.4.5.4l-1.2.4.6-.8zm-6 0 1 1h-1.5l.6-1zm-40.6.2 2.2 1.7-.3.1-.4.1c0-.1 0-.3-.2-.4-.6-.4-1-1-1.3-1.5zm62.1.1h.2l.4.7a5 5 0 0 1-.8-.5l.2-.2zm-54 .1v.6c.2-.1.6-.2.8 0 .2-.2 1-.4 1.1-.3l-.1.4H41h.2l-.9.9c.2.2.2.5 0 .8l-1.5.1v-.1c0-.3 0 0-.2.1h-.3v-.2c-.3-.3-.6-.9-.8-1.4.4.2 1 .2 1.6 0 .3 0-.3-.1-.2-.5.2 0 .4-.2.6-.4zm39 .2c-.2.3-.2 1-.1 1.6 0 .3.1-.3.5-.1l.1.2c-1.1 0-2.2-.1-3.1-.4l1-.8.2.2c.4-.4 1-.5 1.4-.7zm29.5.2c-.3.2-.3.7-.3 1.2l-.3-.1c-.2-.4-.3-.8 0-1l.6-.1zm7 .1c0 .3.2.5.3.7l-.8.5v-.3l.6-.9zm-43.6.2c.6 0 1.2 0 1.6.3l.1-.2 1 .7c-.7.2-1.4.4-2.2.4 0-.5-.2-1-.5-1.2zm-34 .3c0 .3.2.5.3.8v-.1c-.2.1-.4 0-.6-.2l.2-.5zm99.4.6v.2-.2zm-100.7.2.1.2-.4-.1h.3zm79.8 0v.1l-.5.3.3-.2.2-.2zm-79.1 0c0 .2 0 .3-.2.3h-.1l.3-.3zm70.7.6.9.4c-.2 0-.4 0-.5.2l-.1-.2v-.1h-.1l-.2-.3zm-67.4.8c-.3.3-.8.5-1.2.7l.1-.6h1.1zm72.3 0v.9l-.6-.3c0-.2-.2-.4-.4-.3l-.2-.2h1.2zm-1.5.5h-.2.2zm.8.3c.3 0 .5.2.7.3a1 1 0 0 0-.4.1l-.4-.1h-.1l.2-.3z"/>
  <path fill="#36731b" d="M52.4 50.8v1.8l.9-.3c.2 0 .7 0 .9.3l.4.8V54.6c.4.2.5.5.6.8v.1l.3-1v-.8c-.3-.6-.8-1-.9-1.6 0-.2.2-.6.5-.7h.2v-.1l.6-.5zm5.4 0-.7.8.2.1h.1l.6.4.2.2.2.2v.2l.1.1v.1l.1.1V53.3c0 .5-.2 1-1 1.5 0 1.1-.7 1.9-1.2 2.7.7-.2 1.4-.8 2-1.9V55l.3-.3c.3-.2.3-.1.6 0 1.4-.3 2.7 0 3.4 1-.7 0-1.5 0-2.1.3.4.8.5 1.7 0 2.4l-.1.1c-.6.5-1.2.3-1.9 0l-.8.8c-.3.2-.7.3-1 .3-.7.1-1.3.2-1.7.5-.3.2-.4.5-.5.8v.8c1 .3 1.3.7 1.5 1.1v.5c0 .4-.1.7-.5 1l-1 .4 1.4 1.1c-1.1.4-2.4 0-3.3-1v-.1a1 1 0 0 1-.4-.2l.1 11c.2 6.3.8 11.4 3.7 15.4 4 5.4 10.5 9.2 18.9 13V56.1v.1l-.6-.7-.6-.5-1-.7-1-.6c-1.2-.5-2.2-1-2.7-1.8a2 2 0 0 1-.3-.8h-6.4v.1H62v-.4zm-5.2 4.6h-.2v2.1l.5-.2 1-.2c-.1-.6-.3-1-.6-1.3-.2-.2-.4-.4-.7-.4zm-.3 4.9v2.9-.2l.5-.9-.1-1.3c0-.2-.2-.4-.4-.5z"/>
</svg>
